<svg width="89" height="68" viewBox="0 0 89 68" fill="none" xmlns="http://www.w3.org/2000/svg">
<g opacity="0.88" clip-path="url(#clip0_178_537)">
<path d="M63.5488 25.9923C63.2891 25.7367 62.9803 25.534 62.6403 25.396C62.3002 25.2579 61.9357 25.1872 61.5677 25.1879V23.5881C61.5679 23.222 61.4945 22.8594 61.3517 22.521C61.2089 22.1827 60.9995 21.8753 60.7354 21.6164C60.4713 21.3575 60.1578 21.1522 59.8127 21.0122C59.4676 20.8722 59.0977 20.8002 58.7242 20.8005V19.5948H59.401C59.6905 19.5948 59.9681 19.4821 60.1728 19.2814C60.3775 19.0807 60.4925 18.8085 60.4925 18.5247C60.4925 18.2409 60.3775 17.9687 60.1728 17.7681C59.9681 17.5674 59.6905 17.4546 59.401 17.4546H58.7242V16.6182H58.3895V17.4546H57.5817C57.2923 17.4546 57.0146 17.5674 56.8099 17.7681C56.6052 17.9687 56.4902 18.2409 56.4902 18.5247C56.4902 18.8085 56.6052 19.0807 56.8099 19.2814C57.0146 19.4821 57.2923 19.5948 57.5817 19.5948H58.3895V20.8005H56.3047C56.1064 20.8005 55.91 20.8387 55.7268 20.9131C55.5436 20.9875 55.3771 21.0965 55.2369 21.234C55.0967 21.3714 54.9854 21.5346 54.9096 21.7143C54.8337 21.8939 54.7947 22.0864 54.7947 22.2808V25.1879H54.3126C53.5686 25.1878 52.832 25.3315 52.1446 25.6105C51.4573 25.8896 50.8327 26.2987 50.3067 26.8145C49.7806 27.3302 49.3633 27.9425 49.0786 28.6163C48.794 29.2901 48.6475 30.0124 48.6475 30.7417V34.6269C47.6181 34.9177 46.6866 35.4729 45.9495 36.2352C45.2124 36.9974 44.6964 37.9389 44.4551 38.9622H41.9719V36.5024H40.4665V35.468H41.3906C41.6801 35.468 41.9577 35.3553 42.1624 35.1546C42.3671 34.9539 42.4821 34.6817 42.4821 34.3979C42.4821 34.1141 42.3671 33.8419 42.1624 33.6412C41.9577 33.4405 41.6801 33.3278 41.3906 33.3278H40.4665V32.6487H40.1319V33.3278H39.5714C39.2819 33.3278 39.0042 33.4405 38.7995 33.6412C38.5948 33.8419 38.4798 34.1141 38.4798 34.3979C38.4798 34.6817 38.5948 34.9539 38.7995 35.1546C39.0042 35.3553 39.2819 35.468 39.5714 35.468H40.1319V36.5068C39.7476 36.5286 39.3863 36.6937 39.1219 36.9681C38.8576 37.2426 38.7103 37.6057 38.7101 37.9831V38.971C37.2639 39.0495 35.9033 39.668 34.9078 40.6994C33.9123 41.7308 33.3575 43.0968 33.3574 44.5168V67.2499H48.6475V67.25H64.3693V27.9345C64.37 27.5737 64.2979 27.2163 64.1571 26.883C64.0163 26.5496 63.8095 26.2469 63.5488 25.9923Z" fill="#F2F2F2"/>
<path d="M31.9297 25.1874V23.5886C31.9297 23.2225 31.8562 22.86 31.7133 22.5217C31.5703 22.1835 31.3609 21.8762 31.0968 21.6173C30.8328 21.3584 30.5193 21.1531 30.1743 21.013C29.8293 20.8729 29.4595 20.8008 29.0861 20.8008V19.2382H29.7482C30.0377 19.2382 30.3154 19.1255 30.5201 18.9248C30.7248 18.7241 30.8398 18.4519 30.8398 18.1681C30.8398 17.8843 30.7248 17.6121 30.5201 17.4115C30.3154 17.2108 30.0377 17.098 29.7482 17.098H29.0861V16.6191H28.7516V17.098H27.929C27.6395 17.098 27.3619 17.2108 27.1572 17.4115C26.9525 17.6121 26.8375 17.8843 26.8375 18.1681C26.8375 18.4519 26.9525 18.7241 27.1572 18.9248C27.3619 19.1255 27.6395 19.2382 27.929 19.2382H28.7516V20.8008H26.6656C26.4673 20.8008 26.2708 20.8391 26.0876 20.9135C25.9043 20.9879 25.7378 21.097 25.5976 21.2345C25.4573 21.372 25.3461 21.5352 25.2702 21.7149C25.1943 21.8945 25.1552 22.0871 25.1552 22.2815V25.1874H24.6738C23.1711 25.1874 21.73 25.7726 20.6675 26.8143C19.6049 27.856 19.008 29.2688 19.008 30.742V34.341C18.0557 34.7432 17.2258 35.3802 16.599 36.1901C15.9723 36.9999 15.5699 37.9549 15.4312 38.9623H12.3332V36.5025H10.8278V35.1114H11.374C11.6635 35.1114 11.9411 34.9987 12.1458 34.798C12.3505 34.5973 12.4655 34.3251 12.4655 34.0413C12.4655 33.7575 12.3505 33.4853 12.1458 33.2846C11.9411 33.084 11.6635 32.9712 11.374 32.9712H10.8278V32.6488H10.4933V32.9712H9.55477C9.26528 32.9712 8.98764 33.084 8.78293 33.2846C8.57823 33.4853 8.46323 33.7575 8.46323 34.0413C8.46323 34.3251 8.57823 34.5973 8.78293 34.798C8.98764 34.9987 9.26528 35.1114 9.55477 35.1114H10.4933V36.5069C10.1089 36.5287 9.74758 36.6938 9.48327 36.9682C9.21895 37.2427 9.07163 37.6058 9.07145 37.9832V38.9712C7.62525 39.0496 6.26462 39.6681 5.26911 40.6995C4.2736 41.7309 3.71882 43.0969 3.71875 44.5169V67.25H34.7315V27.9342C34.7315 27.5735 34.6591 27.2163 34.5183 26.8831C34.3775 26.5498 34.1711 26.247 33.9109 25.9919C33.6507 25.7369 33.3419 25.5346 33.0019 25.3965C32.662 25.2585 32.2976 25.1874 31.9297 25.1874Z" fill="#F2F2F2"/>
<path d="M11.329 48.8018H13.4199V47.1619H11.329V48.8018Z" fill="white"/>
<path d="M7.90129 48.8018H9.99219V47.1619H7.90129V48.8018Z" fill="white"/>
<path d="M11.329 52.9834H13.4199V51.3435H11.329V52.9834Z" fill="white"/>
<path d="M7.90129 52.9834H9.99219V51.3435H7.90129V52.9834Z" fill="white"/>
<path d="M11.329 57.165H13.4199V55.5252H11.329V57.165Z" fill="white"/>
<path d="M7.90129 57.165H9.99219V55.5252H7.90129V57.165Z" fill="white"/>
<path d="M7.90129 61.3467H9.99219V59.7068H7.90129V61.3467Z" fill="white"/>
<path d="M7.90129 65.5283H9.99219V63.8885H7.90129V65.5283Z" fill="white"/>
<path d="M23.4814 44.1689H30.2559V43.677H23.4814V44.1689Z" fill="white"/>
<path d="M23.4814 47.2031H30.2559V46.7112H23.4814V47.2031Z" fill="white"/>
<path d="M23.4814 50.2363H30.2559V49.7444H23.4814V50.2363Z" fill="white"/>
<path d="M27.497 23.3428H29.5879V21.7029H27.497V23.3428Z" fill="white"/>
<path d="M40.9697 52.9834H43.0605V51.3435H40.9697V52.9834Z" fill="white"/>
<path d="M37.54 52.9834H39.6309V51.3435H37.54V52.9834Z" fill="white"/>
<path d="M40.9697 57.165H43.0605V55.5252H40.9697V57.165Z" fill="white"/>
<path d="M37.54 57.165H39.6309V55.5252H37.54V57.165Z" fill="white"/>
<path d="M40.9697 61.3467H43.0605V59.7068H40.9697V61.3467Z" fill="white"/>
<path d="M37.54 61.3467H39.6309V59.7068H37.54V61.3467Z" fill="white"/>
<path d="M40.9697 65.5283H43.0605V63.8885H40.9697V65.5283Z" fill="white"/>
<path d="M37.54 65.5283H39.6309V63.8885H37.54V65.5283Z" fill="white"/>
<path d="M57.1357 23.3428H59.2266V21.7029H57.1357V23.3428Z" fill="white"/>
<path d="M64.369 28.6914H59.2188V29.7615H64.369V28.6914Z" fill="white"/>
<path d="M64.369 31.9014H59.2188V32.9715H64.369V31.9014Z" fill="white"/>
<path d="M64.369 35.1113H59.2188V36.1814H64.369V35.1113Z" fill="white"/>
<path d="M64.369 38.3223H59.2188V39.3924H64.369V38.3223Z" fill="white"/>
<path d="M64.369 41.5322H59.2188V42.6023H64.369V41.5322Z" fill="white"/>
<path d="M64.369 44.7422H59.2188V45.8123H64.369V44.7422Z" fill="white"/>
<path d="M34.582 50.8251L35.7653 51.7959L40.2328 47.6837L38.4864 46.251L34.582 50.8251Z" fill="#FFB6B6"/>
<path d="M38.0828 50.4969L35.5769 48.8011L42.1749 38.5458C37.3928 35.8208 34.1041 32.4966 31.4207 28.8452C30.5088 27.6129 29.9529 26.1788 31.2251 25.2544C31.2846 25.2111 31.3456 25.1702 31.4082 25.1316C32.8589 24.2453 32.388 25.5735 34.3766 24.9212L36.1733 26.8002L40.0552 30.5033L46.6767 34.647C48.0083 35.4804 48.3778 37.2332 47.502 38.5621C47.4557 38.6323 47.4065 38.7004 47.3542 38.7666L38.0828 50.4969Z" fill="#2F2E41"/>
<path d="M34.7321 50.0342L36.8068 51.5398L36.0983 52.3698L36.8911 55.1831C36.9303 55.3221 36.9231 55.4697 36.8707 55.6044C36.8183 55.739 36.7233 55.8537 36.5996 55.9318C36.476 56.0098 36.3301 56.047 36.1834 56.038C36.0366 56.029 35.8966 55.9742 35.7839 55.8817L33.4313 53.9515L33.7266 52.7979L32.8675 53.4889L31.9805 52.7612L34.7321 50.0342Z" fill="#2F2E41"/>
<path d="M31.8362 39.787L19.0391 44.2734L19.4099 45.2901L32.2071 40.8037L31.8362 39.787Z" fill="#3F3D56"/>
<path d="M34.8285 57.1422L31.4941 54.3197C31.2621 54.1231 31.1192 53.8443 31.0968 53.5445C31.0745 53.2447 31.1745 52.9484 31.3749 52.7209C31.5753 52.4934 31.8596 52.3532 32.1654 52.3312C32.4712 52.3091 32.7734 52.4071 33.0056 52.6035L36.34 55.426C36.455 55.5233 36.5494 55.6418 36.6176 55.7749C36.6859 55.9079 36.7268 56.0528 36.7379 56.2013C36.749 56.3498 36.7302 56.499 36.6825 56.6404C36.6348 56.7818 36.5592 56.9126 36.4599 57.0253C36.3606 57.138 36.2397 57.2305 36.1039 57.2973C35.9682 57.3642 35.8204 57.4042 35.6689 57.4151C35.5174 57.4259 35.3652 57.4074 35.221 57.3606C35.0768 57.3138 34.9434 57.2396 34.8285 57.1422Z" fill="#3F3D56"/>
<path d="M53.7706 24.5333C53.5599 24.6046 53.3358 24.6297 53.1141 24.6069C52.8924 24.584 52.6785 24.5138 52.4875 24.4012C52.2965 24.2885 52.133 24.1362 52.0085 23.9549C51.884 23.7736 51.8016 23.5678 51.7671 23.3519L39.8555 20.3449L41.7981 18.3467L53.1432 21.6125C53.517 21.5797 53.8901 21.6824 54.1918 21.9012C54.4935 22.12 54.7029 22.4397 54.7802 22.7997C54.8575 23.1598 54.7975 23.5351 54.6114 23.8546C54.4253 24.1741 54.1262 24.4156 53.7706 24.5333Z" fill="#FFB6B6"/>
<path d="M35.6759 10.5713C35.6759 10.5713 33.7391 10.7913 33.7739 12.9794C33.8087 15.1675 38.5565 20.152 39.2972 20.9779C40.0379 21.8037 47.4301 22.2257 47.4301 22.2257L49.7392 20.2351L42.8923 17.9735L35.6759 10.5713Z" fill="#F9E8E8"/>
<path d="M31.7461 20.8418L31.3092 22.8509C31.3092 22.8509 30.514 24.5231 30.6683 24.9699C30.8212 25.4142 37.704 27.8295 37.704 27.8295C37.704 27.8295 38.2937 24.8167 39.2778 22.7845L31.7461 20.8418Z" fill="#FFB6B6"/>
<path d="M53.8058 52.266L49.8307 54.1279C49.554 54.2575 49.236 54.274 48.9469 54.1738C48.6577 54.0736 48.421 53.8649 48.2888 53.5936C48.1565 53.3223 48.1397 53.0106 48.2419 52.7271C48.3441 52.4437 48.5569 52.2116 48.8337 52.082L52.8087 50.2201C53.0855 50.0905 53.4034 50.074 53.6926 50.1742C53.9817 50.2743 54.2185 50.4831 54.3507 50.7544C54.4829 51.0257 54.4998 51.3373 54.3976 51.6208C54.2954 51.9043 54.0825 52.1364 53.8058 52.266Z" fill="#3F3D56"/>
<path d="M68.8833 67.1279C66.4005 67.1279 63.9734 66.4062 61.9091 65.0539C59.8447 63.7016 58.2358 61.7796 57.2856 59.5308C56.3355 57.2821 56.0869 54.8076 56.5713 52.4204C57.0557 50.0331 58.2512 47.8403 60.0068 46.1192C61.7624 44.3981 63.9992 43.226 66.4343 42.7511C68.8693 42.2763 71.3934 42.52 73.6871 43.4514C75.9809 44.3829 77.9415 45.9603 79.3208 47.9841C80.7002 50.0079 81.4364 52.3873 81.4364 54.8213C81.4327 58.0841 80.1089 61.2122 77.7555 63.5193C75.4022 65.8265 72.2114 67.1243 68.8833 67.1279ZM68.8833 43.6542C66.6304 43.6542 64.4281 44.3091 62.5548 45.5362C60.6816 46.7632 59.2216 48.5073 58.3595 50.5478C57.4973 52.5884 57.2718 54.8337 57.7113 56.9999C58.1508 59.1661 59.2357 61.1559 60.8287 62.7177C62.4218 64.2794 64.4514 65.343 66.661 65.7739C68.8706 66.2048 71.1609 65.9836 73.2423 65.1384C75.3237 64.2932 77.1028 62.8619 78.3544 61.0254C79.606 59.189 80.2741 57.03 80.2741 54.8213C80.2707 51.8606 79.0695 49.0222 76.934 46.9286C74.7986 44.8351 71.9032 43.6575 68.8833 43.6542Z" fill="#3F3D56"/>
<path d="M69.436 57.4102C70.4092 57.4102 71.1982 56.6367 71.1982 55.6826C71.1982 54.7285 70.4092 53.9551 69.436 53.9551C68.4628 53.9551 67.6738 54.7285 67.6738 55.6826C67.6738 56.6367 68.4628 57.4102 69.436 57.4102Z" fill="#3F3D56"/>
<path d="M17.2911 67.2956C14.9386 67.2956 12.6389 66.6117 10.6828 65.3304C8.72675 64.0491 7.20219 62.2279 6.30191 60.0971C5.40164 57.9663 5.16609 55.6217 5.62504 53.3597C6.084 51.0977 7.21685 49.0199 8.88034 47.3891C10.5438 45.7582 12.6632 44.6476 14.9706 44.1977C17.2779 43.7478 19.6695 43.9787 21.843 44.8613C24.0164 45.7439 25.8741 47.2385 27.1811 49.1561C28.4881 51.0738 29.1857 53.3283 29.1857 55.6346C29.1821 58.7263 27.9278 61.6903 25.6979 63.8764C23.468 66.0625 20.4446 67.2922 17.2911 67.2956ZM17.2911 45.0534C15.1564 45.0534 13.0696 45.6739 11.2947 46.8366C9.51974 47.9993 8.13634 49.6519 7.31943 51.5854C6.50251 53.5188 6.28877 55.6464 6.70523 57.6989C7.12169 59.7515 8.14965 61.6369 9.65911 63.1167C11.1686 64.5966 13.0917 65.6043 15.1854 66.0126C17.2791 66.4209 19.4493 66.2113 21.4215 65.4105C23.3937 64.6096 25.0794 63.2534 26.2654 61.5133C27.4513 59.7732 28.0843 57.7274 28.0843 55.6346C28.0811 52.8293 26.9429 50.1397 24.9195 48.156C22.8961 46.1724 20.1526 45.0565 17.2911 45.0534Z" fill="#3F3D56"/>
<path d="M17.2915 57.3623C18.2647 57.3623 19.0536 56.5889 19.0536 55.6348C19.0536 54.6807 18.2647 53.9072 17.2915 53.9072C16.3182 53.9072 15.5293 54.6807 15.5293 55.6348C15.5293 56.5889 16.3182 57.3623 17.2915 57.3623Z" fill="#3F3D56"/>
<path d="M41.1899 57.4225C42.3184 57.4225 43.2333 56.5256 43.2333 55.4193C43.2333 54.3129 42.3184 53.416 41.1899 53.416C40.0613 53.416 39.1465 54.3129 39.1465 55.4193C39.1465 56.5256 40.0613 57.4225 41.1899 57.4225Z" fill="#3F3D56"/>
<path d="M17.743 55.5123L16.9395 54.7738L31.2829 39.7729L56.8797 32.2627L69.5832 54.12L68.6263 54.6545L56.3564 33.5434L31.8834 40.7238L17.743 55.5123Z" fill="#3F3D56"/>
<path d="M39.4561 54.8311H28.6328V55.9108H39.4561V54.8311Z" fill="#3F3D56"/>
<path d="M32.1346 34.6035H31.0332V40.2487H32.1346V34.6035Z" fill="#3F3D56"/>
<path d="M53.55 21.8293L52.502 22.1611L56.0949 33.0686L57.1429 32.7368L53.55 21.8293Z" fill="#3F3D56"/>
<path d="M32.0246 39.5383L31.0742 40.084L40.1053 55.2001L41.0557 54.6544L32.0246 39.5383Z" fill="#3F3D56"/>
<path d="M61.7462 41.7393L42.3633 54.6973L42.9838 55.5893L62.3667 42.6314L61.7462 41.7393Z" fill="#3F3D56"/>
<path d="M33.6966 35.2762H29.2912C28.9845 35.2762 28.6903 35.1568 28.4735 34.9442C28.2566 34.7315 28.1348 34.4432 28.1348 34.1425C28.1348 33.8418 28.2566 33.5535 28.4735 33.3408C28.6903 33.1282 28.9845 33.0088 29.2912 33.0088H33.6966C34.0033 33.0088 34.2974 33.1282 34.5143 33.3408C34.7312 33.5535 34.853 33.8418 34.853 34.1425C34.853 34.4432 34.7312 34.7315 34.5143 34.9442C34.2974 35.1568 34.0033 35.2762 33.6966 35.2762Z" fill="#F9E8E8"/>
<path d="M55.1732 23.075H50.7677C50.461 23.075 50.1669 22.9556 49.95 22.743C49.7332 22.5304 49.6113 22.242 49.6113 21.9413C49.6113 21.6406 49.7332 21.3523 49.95 21.1397C50.1669 20.9271 50.461 20.8076 50.7677 20.8076H55.1732C55.4799 20.8076 55.774 20.9271 55.9909 21.1397C56.2077 21.3523 56.3296 21.6406 56.3296 21.9413C56.3296 22.242 56.2077 22.5304 55.9909 22.743C55.774 22.9556 55.4799 23.075 55.1732 23.075Z" fill="#F9E8E8"/>
<path d="M83.5852 60.4151L83.7112 57.6381C85.0245 56.9499 86.4893 56.5864 87.9784 56.5791C85.9289 58.2218 86.1851 61.3883 84.7956 63.5973C84.3568 64.283 83.7663 64.8631 83.0678 65.2947C82.3692 65.7262 81.5806 65.9981 80.7603 66.0903L79.0453 67.1197C78.8099 65.8335 78.8618 64.5126 79.1973 63.248C79.5329 61.9834 80.1441 60.8051 80.9888 59.7943C81.4684 59.2319 82.0184 58.7309 82.6257 58.3032C83.0365 59.365 83.5852 60.4151 83.5852 60.4151Z" fill="#F2F2F2"/>
<path d="M88.0446 67.1881C88.0446 67.2049 88.0413 67.2217 88.0347 67.2373C88.0281 67.2529 88.0185 67.2671 88.0063 67.279C87.9941 67.291 87.9797 67.3004 87.9637 67.3069C87.9478 67.3133 87.9307 67.3166 87.9135 67.3165H0.654499C0.619739 67.3165 0.586403 67.303 0.561824 67.2789C0.537245 67.2548 0.523438 67.2221 0.523438 67.1881C0.523438 67.154 0.537245 67.1213 0.561824 67.0972C0.586403 67.0731 0.619739 67.0596 0.654499 67.0596H87.9135C87.9307 67.0595 87.9478 67.0628 87.9637 67.0692C87.9797 67.0757 87.9941 67.0851 88.0063 67.0971C88.0185 67.109 88.0281 67.1232 88.0347 67.1388C88.0413 67.1544 88.0446 67.1712 88.0446 67.1881Z" fill="#CCCCCC"/>
<path d="M38.8293 8.96467C40.6024 8.66915 41.7954 7.02047 41.4939 5.28225C41.1925 3.54402 39.5108 2.37447 37.7377 2.66999C35.9647 2.96551 34.7717 4.61419 35.0731 6.35242C35.3746 8.09064 37.0563 9.26019 38.8293 8.96467Z" fill="#FFB6B6"/>
<path d="M73.7473 20.801C75.3714 20.801 76.688 19.5103 76.688 17.9181C76.688 16.3259 75.3714 15.0352 73.7473 15.0352C72.1232 15.0352 70.8066 16.3259 70.8066 17.9181C70.8066 19.5103 72.1232 20.801 73.7473 20.801Z" fill="#FD6584"/>
<path d="M80.3303 16.5539C80.2471 16.2873 80.0863 16.0502 79.8675 15.872C79.6488 15.6938 79.3817 15.5821 79.0991 15.5508C79.0927 15.5499 79.0866 15.5511 79.0803 15.5507C79.072 15.5482 79.0636 15.5463 79.0552 15.545C77.7103 15.3746 76.1579 16.0052 75.5975 17.2551C75.4607 17.0723 75.2806 16.9248 75.0728 16.8255C74.8649 16.7262 74.6355 16.678 74.4044 16.6851C74.1063 16.7045 73.8217 16.8136 73.5891 16.9973C73.3566 17.1811 73.1874 17.4307 73.1047 17.712C73.0959 17.7465 73.0985 17.7828 73.1122 17.8157C73.1258 17.8485 73.1498 17.8763 73.1806 17.8949C73.2695 17.9687 73.3747 18.0211 73.4879 18.0478C73.7321 18.0986 73.9772 18.145 74.2232 18.1872C74.7031 18.2696 75.1856 18.3361 75.6706 18.387C76.655 18.4904 77.6456 18.5271 78.6352 18.4968C78.9648 18.4867 79.2826 18.476 79.5846 18.3334C79.8043 18.227 79.992 18.0664 80.1293 17.8674C80.2586 17.6762 80.3436 17.4595 80.3783 17.2325C80.4131 17.0056 80.3967 16.774 80.3303 16.5539Z" fill="#F0F0F0"/>
<path d="M74.219 20.3977C74.1358 20.131 73.975 19.894 73.7562 19.7158C73.5375 19.5375 73.2704 19.4259 72.9877 19.3945C72.9813 19.3936 72.9753 19.3948 72.9689 19.3944C72.9607 19.3919 72.9523 19.39 72.9438 19.3887C71.599 19.2183 70.0466 19.8489 69.4861 21.0988C69.3494 20.916 69.1693 20.7686 68.9614 20.6693C68.7536 20.57 68.5241 20.5218 68.293 20.5288C67.995 20.5483 67.7103 20.6573 67.4778 20.8411C67.2452 21.0249 67.0761 21.2744 66.9934 21.5558C66.9846 21.5902 66.9872 21.6265 67.0009 21.6594C67.0145 21.6923 67.0385 21.7201 67.0693 21.7387C67.1581 21.8125 67.2634 21.8648 67.3765 21.8916C67.6208 21.9423 67.8659 21.9888 68.1118 22.031C68.5918 22.1133 69.0743 22.1799 69.5592 22.2307C70.5437 22.3341 71.5343 22.3708 72.5239 22.3406C72.8535 22.3305 73.1713 22.3198 73.4733 22.1771C73.693 22.0708 73.8807 21.9102 74.018 21.7112C74.1473 21.5199 74.2323 21.3032 74.267 21.0763C74.3017 20.8493 74.2853 20.6177 74.219 20.3977Z" fill="#F0F0F0"/>
<path d="M58.4395 36.3593L54.7617 28.7483L54.8115 28.7252C55.0664 28.6068 55.3425 28.5388 55.6242 28.5251C55.9059 28.5113 56.1876 28.5521 56.4532 28.6451C56.7188 28.7381 56.9631 28.8814 57.1722 29.067C57.3813 29.2525 57.551 29.4767 57.6718 29.7265L59.5107 33.5321C59.6314 33.7819 59.7008 34.0527 59.7148 34.3288C59.7288 34.605 59.6872 34.8811 59.5924 35.1415C59.4975 35.4019 59.3513 35.6414 59.162 35.8464C58.9728 36.0514 58.7442 36.2178 58.4893 36.3361L58.4395 36.3593Z" fill="#3F3D56"/>
<path d="M47.1975 37.6967C46.7344 37.6955 46.2842 37.5479 45.9136 37.2757C45.543 37.0035 45.2719 36.6214 45.1406 36.1861L45.125 36.1343L53.3644 33.751L53.38 33.8027C53.4598 34.0679 53.4856 34.3459 53.4558 34.6209C53.426 34.8958 53.3413 35.1624 53.2064 35.4052C53.0716 35.648 52.8893 35.8625 52.6699 36.0363C52.4505 36.21 52.1984 36.3397 51.9279 36.418L47.8082 37.6096C47.6099 37.6672 47.4042 37.6965 47.1975 37.6967Z" fill="#3F3D56"/>
<path d="M48.2563 50.8136L49.7555 50.451L49.0624 44.4805L46.8496 45.0158L48.2563 50.8136Z" fill="#FFB6B6"/>
<path d="M47.5469 49.1L49.8867 48.0312L50.2925 49.0378L53.1926 49.6975C53.3359 49.7301 53.4648 49.8067 53.5605 49.9162C53.6561 50.0256 53.7136 50.1622 53.7245 50.306C53.7354 50.4497 53.6992 50.5931 53.6211 50.7153C53.5429 50.8374 53.427 50.9319 53.2903 50.9848L50.4374 52.0903L49.5442 51.2852L49.7536 52.3552L48.6779 52.772L47.5469 49.1Z" fill="#2F2E41"/>
<path d="M49.8398 45.4335L46.643 47.313L43.2335 35.5082C37.7024 35.4619 32.5883 34.8548 28.4128 32.9849C26.9981 32.3569 26.3688 30.6961 27.0073 29.2754C27.0371 29.209 27.0695 29.1438 27.1044 29.0798C27.9172 27.6057 29.4929 26.74 30.8912 25.208L37.827 27.7185L37.33 29.5495L45.1757 29.9356C46.7535 30.0133 47.9597 31.3568 47.87 32.9365C47.8652 33.02 47.8569 33.1031 47.8449 33.1859L49.8398 45.4335Z" fill="#2F2E41"/>
<path d="M36.278 8.93359L38.4095 10.0262C38.5272 10.0723 38.6274 10.1532 38.696 10.2577C38.7646 10.3623 38.7982 10.4852 38.7922 10.6093L39.3474 12.7873L41.3009 16.841C41.3009 16.841 41.8099 18.9984 40.8385 21.0353C39.8671 23.0723 37.7173 28.1502 37.7173 28.1502C36.3151 31.4427 24.8059 28.9001 27.8052 26.0987C28.162 25.7654 30.1679 22.9499 30.9018 22.7881L32.7026 12.6856C32.7933 12.1522 33.0034 11.6451 33.3176 11.2007C33.6318 10.7563 34.0425 10.3855 34.5201 10.1151C34.8087 9.95517 35.0761 9.8605 35.2594 9.90881C35.6772 10.0043 35.8746 9.07668 36.278 8.93359Z" fill="#F9E8E8"/>
<path d="M54.7889 22.319C54.5951 22.427 54.3795 22.4919 54.1573 22.5094C53.9351 22.5268 53.7117 22.4962 53.5028 22.4199C53.294 22.3435 53.1048 22.2232 52.9485 22.0673C52.7922 21.9115 52.6727 21.724 52.5983 21.518L40.3262 20.7043L41.8619 18.3906L53.6256 19.5606C53.9869 19.4611 54.3729 19.4949 54.7104 19.6558C55.0479 19.8166 55.3136 20.0932 55.457 20.4332C55.6004 20.7733 55.6116 21.153 55.4884 21.5006C55.3653 21.8481 55.1164 22.1393 54.7889 22.319Z" fill="#FFB6B6"/>
<path d="M34.3878 11.8496C34.3878 11.8496 32.525 12.4142 32.9687 14.5589C33.4124 16.7036 39.0124 20.7496 39.895 21.4283C40.7777 22.1069 48.1233 21.1922 48.1233 21.1922L50.0208 18.8201L42.8669 17.8284L34.3878 11.8496Z" fill="#F9E8E8"/>
<path d="M41.7575 4.76079C41.2658 4.99826 40.709 4.65408 40.2787 4.3118L40.4327 4.43947C39.6862 5.16625 39.3446 6.20451 39.183 7.2248C39.0212 8.24402 39.0129 9.28477 38.8064 10.2972C38.5998 11.3086 38.1597 12.3271 37.3244 12.9537C36.2053 13.793 34.6493 13.7555 33.2627 13.5157C33.2442 13.5122 33.227 13.5096 33.2085 13.5061C33.5698 12.4483 33.7095 11.3298 33.6191 10.2177C33.2598 11.3367 32.6389 12.3579 31.8059 13.1999C30.8857 12.9617 29.9867 12.6507 29.1177 12.2702C28.5554 12.0233 27.9491 11.6841 27.7877 11.101C27.6259 10.5223 27.9811 9.91001 28.4608 9.53873C28.9404 9.16746 29.5318 8.97031 30.0799 8.70373C30.6271 8.43838 31.1674 8.06248 31.3818 7.50105C31.8761 6.20954 30.4139 4.748 30.9645 3.47779C31.236 2.85316 31.9134 2.50805 32.5508 2.24083C33.5238 1.83395 34.5238 1.49201 35.5438 1.21736C36.4393 0.976114 37.3749 0.786217 38.2912 0.929204C39.2075 1.07219 40.1093 1.60857 40.4475 2.45686C40.9987 2.63332 41.584 2.83257 41.9412 3.28229C42.2983 3.73095 42.2781 4.50973 41.7575 4.76079Z" fill="#2F2E41"/>
<path d="M26.5585 59.627H7.97461V59.8429H26.5585V59.627Z" fill="#3F3D56"/>
<path d="M26.5585 61.7861H7.97461V62.0021H26.5585V61.7861Z" fill="#3F3D56"/>
<path d="M78.7636 59.627H60.1797V59.8429H78.7636V59.627Z" fill="#3F3D56"/>
<path d="M78.7636 61.7861H60.1797V62.0021H78.7636V61.7861Z" fill="#3F3D56"/>
<path d="M59.3761 33.6521C60.0322 33.4144 60.2649 32.4281 59.8958 31.4493C59.5267 30.4705 58.6956 29.8698 58.0395 30.1076C57.3834 30.3453 57.1508 31.3316 57.5198 32.3104C57.8889 33.2892 58.72 33.8899 59.3761 33.6521Z" fill="#F9E8E8"/>
</g>
<defs>
<clipPath id="clip0_178_537">
<rect width="87.5211" height="66.4365" fill="white" transform="translate(0.523438 0.879883)"/>
</clipPath>
</defs>
</svg>
