<svg width="245" height="190" viewBox="0 0 245 190" fill="none" xmlns="http://www.w3.org/2000/svg">
<g opacity="0.88" clip-path="url(#clip0_161_1307)">
<path d="M176.405 72.2272C175.678 71.5001 174.815 70.9236 173.865 70.5309C172.914 70.1381 171.895 69.937 170.867 69.9389V65.3878C170.867 64.3462 170.662 63.3147 170.263 62.3522C169.864 61.3897 169.278 60.5153 168.54 59.7787C167.802 59.0422 166.925 58.4581 165.961 58.0598C164.996 57.6615 163.962 57.4568 162.918 57.4575V54.0277H164.81C165.619 54.0277 166.395 53.7069 166.967 53.136C167.54 52.5651 167.861 51.7908 167.861 50.9834C167.861 50.176 167.54 49.4017 166.967 48.8308C166.395 48.2599 165.619 47.9392 164.81 47.9392H162.918V45.5596H161.982V47.9392H159.725C158.915 47.9392 158.139 48.2599 157.567 48.8308C156.995 49.4017 156.673 50.176 156.673 50.9834C156.673 51.7908 156.995 52.5651 157.567 53.136C158.139 53.7069 158.915 54.0277 159.725 54.0277H161.982V57.4575H156.155C155.6 57.4574 155.052 57.5663 154.539 57.7779C154.027 57.9895 153.562 58.2997 153.17 58.6908C152.778 59.0818 152.467 59.5461 152.255 60.0571C152.043 60.568 151.934 61.1157 151.934 61.6687V69.9389H150.586C148.507 69.9388 146.447 70.3473 144.526 71.1413C142.605 71.9352 140.859 73.099 139.388 74.5662C137.918 76.0334 136.751 77.7752 135.956 79.6921C135.16 81.6091 134.75 83.6637 134.751 85.7386V96.7912C131.873 97.6184 129.269 99.198 127.209 101.366C125.148 103.535 123.706 106.213 123.031 109.124H116.09V102.127H111.882V99.184H114.465C115.274 99.184 116.05 98.8633 116.623 98.2924C117.195 97.7215 117.516 96.9472 117.516 96.1398C117.516 95.3324 117.195 94.5581 116.623 93.9872C116.05 93.4163 115.274 93.0955 114.465 93.0955H111.882V91.1637H110.947V93.0955H109.38C108.571 93.0955 107.794 93.4163 107.222 93.9872C106.65 94.5581 106.329 95.3324 106.329 96.1398C106.329 96.9472 106.65 97.7215 107.222 98.2924C107.794 98.8633 108.571 99.184 109.38 99.184H110.947V102.139C109.872 102.201 108.862 102.671 108.123 103.452C107.385 104.232 106.973 105.265 106.972 106.339V109.15C102.93 109.373 99.1263 111.132 96.3435 114.066C93.5607 117.001 92.01 120.887 92.0098 124.926V189.598H134.751V189.598H178.698V77.7525C178.7 76.7261 178.498 75.7095 178.105 74.7612C177.711 73.8129 177.133 72.9517 176.405 72.2272Z" fill="#F2F2F2"/>
<path d="M88.017 69.9373V65.3888C88.017 64.3473 87.8114 63.316 87.4119 62.3538C87.0125 61.3916 86.427 60.5174 85.6888 59.7809C84.9507 59.0445 84.0744 58.4603 83.11 58.0618C82.1457 57.6632 81.112 57.4581 80.0682 57.4581V53.0129H81.919C82.7283 53.0129 83.5043 52.6921 84.0766 52.1212C84.6488 51.5503 84.9702 50.776 84.9702 49.9686C84.9702 49.1612 84.6488 48.3869 84.0766 47.816C83.5043 47.2451 82.7283 46.9244 81.919 46.9244H80.0682V45.562H79.133V46.9244H76.8337C76.0245 46.9244 75.2484 47.2451 74.6762 47.816C74.104 48.3869 73.7825 49.1612 73.7825 49.9686C73.7825 50.776 74.104 51.5503 74.6762 52.1212C75.2484 52.6921 76.0245 53.0129 76.8337 53.0129H79.133V57.4581H73.3021C72.7477 57.4581 72.1986 57.567 71.6864 57.7787C71.1741 57.9904 70.7087 58.3007 70.3167 58.6919C69.9246 59.083 69.6136 59.5474 69.4014 60.0585C69.1893 60.5695 69.0801 61.1173 69.0801 61.6705V69.9373H67.7344C63.534 69.9373 59.5055 71.6021 56.5354 74.5655C53.5652 77.5289 51.8965 81.5481 51.8965 85.739V95.9775C49.2346 97.1218 46.9148 98.934 45.1628 101.238C43.4108 103.542 42.2862 106.259 41.8983 109.124H33.2385V102.127H29.0303V98.1692H30.5571C31.3663 98.1692 32.1424 97.8485 32.7146 97.2776C33.2868 96.7067 33.6083 95.9324 33.6083 95.125C33.6083 94.3176 33.2868 93.5433 32.7146 92.9724C32.1424 92.4015 31.3663 92.0807 30.5571 92.0807H29.0303V91.1636H28.0951V92.0807H25.4718C24.6625 92.0807 23.8864 92.4015 23.3142 92.9724C22.742 93.5433 22.4206 94.3176 22.4206 95.125C22.4206 95.9324 22.742 96.7067 23.3142 97.2776C23.8864 97.8485 24.6625 98.1692 25.4718 98.1692H28.0951V102.139C27.0207 102.201 26.0107 102.671 25.2719 103.452C24.5331 104.232 24.1212 105.265 24.1207 106.339V109.149C20.0781 109.373 16.2747 111.132 13.492 114.066C10.7092 117 9.1584 120.887 9.1582 124.926V189.598H95.849V77.7514C95.849 76.7252 95.6464 75.7091 95.2528 74.761C94.8592 73.813 94.2823 72.9516 93.555 72.226C92.8278 71.5003 91.9644 70.9248 91.0142 70.5321C90.0639 70.1394 89.0455 69.9373 88.017 69.9373Z" fill="#F2F2F2"/>
<path d="M30.4326 137.115H36.2773V132.45H30.4326V137.115Z" fill="white"/>
<path d="M20.8467 137.115H26.6914V132.45H20.8467V137.115Z" fill="white"/>
<path d="M30.4326 149.011H36.2773V144.346H30.4326V149.011Z" fill="white"/>
<path d="M20.8467 149.011H26.6914V144.346H20.8467V149.011Z" fill="white"/>
<path d="M30.4326 160.907H36.2773V156.242H30.4326V160.907Z" fill="white"/>
<path d="M20.8467 160.907H26.6914V156.242H20.8467V160.907Z" fill="white"/>
<path d="M20.8467 172.803H26.6914V168.138H20.8467V172.803Z" fill="white"/>
<path d="M20.8467 184.699H26.6914V180.034H20.8467V184.699Z" fill="white"/>
<path d="M64.4049 123.936H83.3418V122.537H64.4049V123.936Z" fill="white"/>
<path d="M64.4049 132.566H83.3418V131.167H64.4049V132.566Z" fill="white"/>
<path d="M64.4049 141.197H83.3418V139.798H64.4049V141.197Z" fill="white"/>
<path d="M75.626 64.689H81.4707V60.0238H75.626V64.689Z" fill="white"/>
<path d="M113.284 149.011H119.129V144.346H113.284V149.011Z" fill="white"/>
<path d="M103.698 149.011H109.543V144.346H103.698V149.011Z" fill="white"/>
<path d="M113.284 160.907H119.129V156.242H113.284V160.907Z" fill="white"/>
<path d="M103.698 160.907H109.543V156.242H103.698V160.907Z" fill="white"/>
<path d="M113.284 172.803H119.129V168.138H113.284V172.803Z" fill="white"/>
<path d="M103.698 172.803H109.543V168.138H103.698V172.803Z" fill="white"/>
<path d="M113.284 184.699H119.129V180.034H113.284V184.699Z" fill="white"/>
<path d="M103.698 184.699H109.543V180.034H103.698V184.699Z" fill="white"/>
<path d="M158.478 64.689H164.322V60.0238H158.478V64.689Z" fill="white"/>
<path d="M178.697 79.9038H164.301V82.9481H178.697V79.9038Z" fill="white"/>
<path d="M178.697 89.0366H164.301V92.0809H178.697V89.0366Z" fill="white"/>
<path d="M178.697 98.1689H164.301V101.213H178.697V98.1689Z" fill="white"/>
<path d="M178.697 107.302H164.301V110.346H178.697V107.302Z" fill="white"/>
<path d="M178.697 116.435H164.301V119.479H178.697V116.435Z" fill="white"/>
<path d="M178.697 125.567H164.301V128.612H178.697V125.567Z" fill="white"/>
<path d="M95.4316 142.871L98.7393 145.633L111.228 133.935L106.346 129.859L95.4316 142.871Z" fill="#FFB6B6"/>
<path d="M105.216 141.937L98.211 137.113L116.655 107.939C103.287 100.187 94.0941 90.73 86.5931 80.3424C84.044 76.8368 82.4901 72.757 86.0463 70.1271C86.2125 70.0041 86.3832 69.8877 86.5583 69.7777C90.6134 67.2566 89.2971 71.035 94.8557 69.1793L99.8781 74.5248L110.729 85.0593L129.239 96.8476C132.961 99.2183 133.994 104.205 131.545 107.985C131.416 108.185 131.278 108.379 131.132 108.567L105.216 141.937Z" fill="#010B13"/>
<path d="M95.8498 140.622L101.649 144.905L99.6688 147.266L101.885 155.27C101.995 155.665 101.975 156.085 101.828 156.468C101.681 156.851 101.416 157.178 101.07 157.4C100.725 157.622 100.317 157.727 99.9066 157.702C99.4964 157.676 99.1051 157.52 98.7899 157.257L92.2137 151.766L93.0393 148.484L90.6377 150.45L88.1582 148.38L95.8498 140.622Z" fill="#010B13"/>
<path d="M87.7546 111.471L51.9824 124.234L53.0191 127.127L88.7913 114.364L87.7546 111.471Z" fill="#010B13"/>
<path d="M96.1215 160.844L86.8007 152.814C86.1521 152.255 85.7527 151.462 85.6902 150.609C85.6278 149.756 85.9073 148.913 86.4675 148.266C87.0277 147.619 87.8225 147.22 88.6773 147.157C89.5322 147.094 90.3769 147.373 91.0259 147.932L100.347 155.961C100.668 156.238 100.932 156.575 101.123 156.954C101.314 157.332 101.428 157.744 101.459 158.167C101.49 158.589 101.437 159.014 101.304 159.416C101.171 159.818 100.959 160.19 100.682 160.511C100.404 160.832 100.066 161.095 99.6868 161.285C99.3074 161.475 98.8941 161.589 98.4707 161.62C98.0472 161.651 97.6218 161.598 97.2187 161.465C96.8156 161.332 96.4428 161.121 96.1215 160.844Z" fill="#010B13"/>
<path d="M149.069 68.0751C148.48 68.2778 147.854 68.3492 147.234 68.2842C146.614 68.2193 146.016 68.0195 145.482 67.6991C144.948 67.3787 144.491 66.9453 144.144 66.4296C143.796 65.9138 143.565 65.3283 143.469 64.7141L110.172 56.1597L115.602 50.4751L147.315 59.7659C148.36 59.6724 149.403 59.9646 150.247 60.5871C151.09 61.2095 151.675 62.119 151.891 63.1433C152.108 64.1675 151.94 65.2352 151.419 66.1442C150.899 67.0532 150.063 67.7402 149.069 68.0751Z" fill="#FFB6B6"/>
<path d="M98.4861 28.3569C98.4861 28.3569 93.072 28.9828 93.1693 35.2075C93.2665 41.4323 106.538 55.6124 108.609 57.9618C110.679 60.3112 131.343 61.5115 131.343 61.5115L137.798 55.8487L118.658 49.415L98.4861 28.3569Z" fill="#F9E8E8"/>
<path d="M87.504 57.5732L86.2826 63.2889C86.2826 63.2889 84.0597 68.0459 84.4911 69.3168C84.9185 70.5809 104.158 77.452 104.158 77.452C104.158 77.452 105.807 68.8812 108.557 63.0999L87.504 57.5732Z" fill="#FFB6B6"/>
<path d="M149.165 146.97L138.054 152.267C137.28 152.636 136.392 152.683 135.583 152.398C134.775 152.113 134.113 151.519 133.744 150.747C133.374 149.975 133.327 149.089 133.612 148.282C133.898 147.476 134.493 146.815 135.267 146.447L146.378 141.15C147.152 140.781 148.041 140.734 148.849 141.019C149.657 141.304 150.319 141.898 150.689 142.67C151.058 143.442 151.105 144.328 150.82 145.135C150.534 145.941 149.939 146.602 149.165 146.97Z" fill="#010B13"/>
<path d="M191.315 189.25C184.375 189.25 177.59 187.197 171.82 183.35C166.049 179.503 161.552 174.035 158.896 167.638C156.24 161.241 155.545 154.201 156.899 147.41C158.253 140.619 161.595 134.381 166.502 129.484C171.41 124.588 177.662 121.254 184.469 119.903C191.276 118.552 198.331 119.245 204.743 121.895C211.155 124.545 216.635 129.032 220.491 134.79C224.347 140.547 226.405 147.316 226.405 154.24C226.394 163.522 222.694 172.421 216.116 178.985C209.537 185.548 200.618 189.24 191.315 189.25ZM191.315 122.472C185.017 122.472 178.861 124.335 173.625 127.826C168.389 131.316 164.307 136.278 161.897 142.083C159.488 147.888 158.857 154.275 160.086 160.438C161.314 166.6 164.347 172.261 168.8 176.704C173.253 181.147 178.926 184.173 185.103 185.398C191.279 186.624 197.682 185.995 203.5 183.59C209.318 181.186 214.291 177.114 217.79 171.89C221.288 166.666 223.156 160.523 223.156 154.24C223.146 145.818 219.789 137.743 213.819 131.787C207.85 125.831 199.757 122.481 191.315 122.472Z" fill="#010B13"/>
<path d="M192.859 161.606C195.58 161.606 197.785 159.406 197.785 156.691C197.785 153.977 195.58 151.777 192.859 151.777C190.139 151.777 187.934 153.977 187.934 156.691C187.934 159.406 190.139 161.606 192.859 161.606Z" fill="#010B13"/>
<path d="M47.0989 189.728C40.5228 189.728 34.0944 187.782 28.6266 184.137C23.1588 180.492 18.8971 175.311 16.3806 169.249C13.864 163.188 13.2056 156.518 14.4885 150.083C15.7714 143.648 18.9381 137.737 23.5881 133.097C28.2381 128.458 34.1626 125.298 40.6123 124.018C47.062 122.738 53.7473 123.395 59.8228 125.906C65.8983 128.417 71.0912 132.669 74.7447 138.124C78.3981 143.58 80.3482 149.993 80.3482 156.554C80.3382 165.349 76.832 173.782 70.5987 180.001C64.3654 186.22 55.9141 189.718 47.0989 189.728ZM47.0989 126.452C41.1317 126.452 35.2985 128.218 30.337 131.526C25.3755 134.833 21.5084 139.534 19.2249 145.035C16.9413 150.535 16.3438 156.588 17.508 162.427C18.6721 168.266 21.5456 173.63 25.765 177.84C29.9845 182.049 35.3604 184.916 41.2129 186.078C47.0654 187.239 53.1317 186.643 58.6447 184.365C64.1577 182.087 68.8697 178.228 72.1849 173.278C75.5001 168.328 77.2695 162.508 77.2695 156.554C77.2605 148.574 74.0789 140.922 68.4228 135.279C62.7666 129.636 55.0979 126.462 47.0989 126.452Z" fill="#010B13"/>
<path d="M47.0977 161.469C49.8181 161.469 52.0235 159.268 52.0235 156.554C52.0235 153.84 49.8181 151.64 47.0977 151.64C44.3772 151.64 42.1719 153.84 42.1719 156.554C42.1719 159.268 44.3772 161.469 47.0977 161.469Z" fill="#010B13"/>
<path d="M113.905 161.639C117.06 161.639 119.617 159.087 119.617 155.94C119.617 152.792 117.06 150.241 113.905 150.241C110.751 150.241 108.193 152.792 108.193 155.94C108.193 159.087 110.751 161.639 113.905 161.639Z" fill="#010B13"/>
<path d="M48.3634 156.206L46.1172 154.105L86.2118 111.43L157.763 90.0649L193.274 152.245L190.599 153.766L156.3 93.7082L87.8903 114.135L48.3634 156.206Z" fill="#010B13"/>
<path d="M109.053 154.268H78.7988V157.34H109.053V154.268Z" fill="#010B13"/>
<path d="M88.5904 96.7231H85.5117V112.783H88.5904V96.7231Z" fill="#010B13"/>
<path d="M148.453 60.3847L145.523 61.3286L155.567 92.3584L158.496 91.4145L148.453 60.3847Z" fill="#010B13"/>
<path d="M88.2836 110.762L85.627 112.314L110.872 155.317L113.528 153.765L88.2836 110.762Z" fill="#010B13"/>
<path d="M171.365 117.025L117.184 153.888L118.918 156.426L173.1 119.563L171.365 117.025Z" fill="#010B13"/>
<path d="M92.9573 98.6374H80.6427C79.7854 98.6374 78.9632 98.2976 78.357 97.6928C77.7507 97.0879 77.4102 96.2676 77.4102 95.4122C77.4102 94.5568 77.7507 93.7365 78.357 93.1317C78.9632 92.5268 79.7854 92.187 80.6427 92.187H92.9573C93.8146 92.187 94.6368 92.5268 95.243 93.1317C95.8493 93.7365 96.1898 94.5568 96.1898 95.4122C96.1898 96.2676 95.8493 97.0879 95.243 97.6928C94.6368 98.2976 93.8146 98.6374 92.9573 98.6374Z" fill="#F9E8E8"/>
<path d="M152.99 63.9284H140.676C139.819 63.9284 138.996 63.5886 138.39 62.9838C137.784 62.3789 137.443 61.5586 137.443 60.7032C137.443 59.8479 137.784 59.0275 138.39 58.4227C138.996 57.8178 139.819 57.478 140.676 57.478H152.99C153.848 57.478 154.67 57.8178 155.276 58.4227C155.882 59.0275 156.223 59.8479 156.223 60.7032C156.223 61.5586 155.882 62.3789 155.276 62.9838C154.67 63.5886 153.848 63.9284 152.99 63.9284Z" fill="#F9E8E8"/>
<path d="M232.412 170.154L232.764 162.254C236.435 160.296 240.53 159.262 244.692 159.241C238.963 163.914 239.679 172.922 235.795 179.207C234.569 181.157 232.918 182.808 230.966 184.035C229.013 185.263 226.808 186.037 224.515 186.299L219.721 189.227C219.064 185.568 219.209 181.811 220.146 178.213C221.084 174.615 222.793 171.263 225.154 168.388C226.495 166.788 228.032 165.363 229.73 164.146C230.878 167.167 232.412 170.154 232.412 170.154Z" fill="#F2F2F2"/>
<path d="M244.877 189.421C244.877 189.469 244.867 189.516 244.849 189.561C244.831 189.605 244.804 189.646 244.77 189.679C244.736 189.713 244.695 189.74 244.651 189.759C244.606 189.777 244.558 189.786 244.51 189.786H0.592921C0.495757 189.786 0.402571 189.748 0.333866 189.679C0.26516 189.611 0.226562 189.518 0.226562 189.421C0.226562 189.324 0.26516 189.231 0.333866 189.162C0.402571 189.094 0.495757 189.055 0.592921 189.055H244.51C244.558 189.055 244.606 189.064 244.651 189.083C244.695 189.101 244.736 189.128 244.77 189.162C244.804 189.196 244.831 189.236 244.849 189.281C244.867 189.325 244.877 189.373 244.877 189.421Z" fill="#CCCCCC"/>
<path d="M107.305 23.7849C112.261 22.9442 115.596 18.254 114.753 13.3091C113.911 8.36413 109.21 5.03698 104.253 5.87768C99.2971 6.71838 95.9624 11.4086 96.805 16.3535C97.6476 21.2985 102.349 24.6256 107.305 23.7849Z" fill="#FFB6B6"/>
<path d="M204.914 57.4591C209.453 57.4591 213.134 53.7871 213.134 49.2576C213.134 44.7281 209.453 41.0562 204.914 41.0562C200.374 41.0562 196.693 44.7281 196.693 49.2576C196.693 53.7871 200.374 57.4591 204.914 57.4591Z" fill="#FFB6B6"/>
<path d="M223.312 45.375C223.079 44.6164 222.63 43.9421 222.018 43.4351C221.407 42.928 220.66 42.6104 219.87 42.5212C219.852 42.5187 219.835 42.522 219.817 42.5209C219.794 42.5138 219.771 42.5085 219.747 42.5047C215.988 42.02 211.649 43.8138 210.082 47.3696C209.7 46.8495 209.196 46.4302 208.615 46.1476C208.034 45.8651 207.393 45.728 206.747 45.7481C205.914 45.8035 205.118 46.1137 204.468 46.6364C203.818 47.1592 203.345 47.8691 203.114 48.6696C203.089 48.7676 203.097 48.8708 203.135 48.9644C203.173 49.0579 203.24 49.1369 203.326 49.1899C203.574 49.3999 203.869 49.5488 204.185 49.6249C204.868 49.7692 205.553 49.9014 206.24 50.0214C207.582 50.2557 208.931 50.4451 210.286 50.5896C213.038 50.8838 215.807 50.9883 218.573 50.9021C219.495 50.8735 220.383 50.843 221.227 50.4373C221.841 50.1346 222.366 49.6778 222.75 49.1117C223.111 48.5676 223.349 47.9511 223.446 47.3055C223.543 46.6599 223.497 46.001 223.312 45.375Z" fill="#F0F0F0"/>
<path d="M206.228 56.31C205.995 55.5514 205.546 54.8771 204.934 54.3701C204.323 53.8631 203.576 53.5455 202.786 53.4563C202.768 53.4537 202.751 53.4571 202.733 53.4559C202.71 53.4489 202.687 53.4435 202.663 53.4398C198.904 52.9551 194.565 54.7489 192.998 58.3046C192.616 57.7846 192.112 57.3652 191.531 57.0827C190.95 56.8002 190.309 56.663 189.663 56.6831C188.83 56.7385 188.034 57.0487 187.384 57.5715C186.734 58.0943 186.261 58.8042 186.03 59.6047C186.005 59.7026 186.013 59.8059 186.051 59.8994C186.089 59.993 186.156 60.072 186.242 60.125C186.49 60.3349 186.785 60.4839 187.101 60.5599C187.784 60.7042 188.469 60.8364 189.156 60.9565C190.498 61.1907 191.847 61.3801 193.202 61.5247C195.954 61.8189 198.723 61.9233 201.489 61.8372C202.411 61.8085 203.299 61.778 204.143 61.3723C204.757 61.0697 205.282 60.6129 205.666 60.0468C206.027 59.5026 206.265 58.8861 206.362 58.2405C206.459 57.595 206.413 56.936 206.228 56.31Z" fill="#F0F0F0"/>
<path d="M162.122 101.717L151.842 80.0653L151.981 79.9996C152.693 79.6628 153.465 79.4694 154.253 79.4303C155.04 79.3911 155.828 79.5072 156.57 79.7717C157.312 80.0362 157.995 80.4441 158.58 80.9719C159.164 81.4998 159.639 82.1374 159.976 82.8482L165.117 93.6743C165.454 94.3852 165.648 95.1553 165.687 95.9409C165.726 96.7265 165.61 97.5121 165.345 98.2529C165.08 98.9936 164.671 99.675 164.142 100.258C163.613 100.841 162.974 101.315 162.262 101.651L162.122 101.717Z" fill="#010B13"/>
<path d="M130.696 105.523C129.401 105.519 128.143 105.099 127.107 104.325C126.071 103.551 125.313 102.464 124.946 101.225L124.902 101.078L147.934 94.2979L147.978 94.4451C148.201 95.1996 148.273 95.9904 148.19 96.7726C148.106 97.5548 147.87 98.313 147.493 99.0038C147.116 99.6947 146.606 100.305 145.993 100.799C145.38 101.293 144.675 101.662 143.919 101.885L132.403 105.275C131.849 105.439 131.274 105.522 130.696 105.523Z" fill="#010B13"/>
<path d="M133.657 142.837L137.848 141.806L135.91 124.821L129.725 126.344L133.657 142.837Z" fill="#FFB6B6"/>
<path d="M131.672 137.963L138.212 134.923L139.347 137.786L147.454 139.663C147.854 139.756 148.214 139.974 148.482 140.285C148.749 140.597 148.91 140.985 148.94 141.394C148.971 141.803 148.87 142.211 148.651 142.558C148.433 142.906 148.109 143.175 147.727 143.325L139.752 146.47L137.255 144.18L137.84 147.224L134.834 148.41L131.672 137.963Z" fill="#010B13"/>
<path d="M138.082 127.533L129.146 132.879L119.615 99.2967C104.154 99.1652 89.8587 97.438 78.1868 92.1185C74.2323 90.332 72.4732 85.6074 74.2578 81.5657C74.3412 81.3768 74.4317 81.1913 74.5292 81.0093C76.8013 76.8156 81.2061 74.3529 85.1146 69.9946L104.503 77.1365L103.113 82.3455L125.044 83.4439C129.455 83.6648 132.827 87.487 132.576 91.9809C132.563 92.2182 132.539 92.4547 132.506 92.6903L138.082 127.533Z" fill="#010B13"/>
<path d="M100.172 23.6973L106.13 26.8055C106.459 26.9366 106.739 27.1668 106.931 27.4642C107.123 27.7616 107.217 28.1112 107.2 28.4644L108.752 34.6604L114.213 46.1923C114.213 46.1923 115.636 52.3298 112.92 58.1246C110.205 63.9194 104.195 78.3651 104.195 78.3651C100.276 87.7316 68.1038 80.4984 76.4877 72.529C77.4853 71.5807 83.0922 63.5711 85.1437 63.1107L90.1775 34.3709C90.4312 32.8536 91.0184 31.411 91.8968 30.1468C92.7751 28.8825 93.9231 27.8278 95.2582 27.0583C96.0647 26.6035 96.8123 26.3341 97.3247 26.4716C98.4926 26.7431 99.0445 24.1043 100.172 23.6973Z" fill="#F9E8E8"/>
<path d="M151.916 61.7781C151.375 62.0852 150.772 62.2701 150.151 62.3196C149.53 62.3692 148.905 62.2823 148.321 62.065C147.738 61.8478 147.209 61.5054 146.772 61.0621C146.335 60.6188 146.001 60.0854 145.793 59.4993L111.488 57.1846L115.781 50.6025L148.664 53.931C149.674 53.6478 150.753 53.7441 151.697 54.2017C152.64 54.6592 153.383 55.4462 153.784 56.4134C154.185 57.3807 154.216 58.4611 153.872 59.4498C153.528 60.4386 152.832 61.267 151.916 61.7781Z" fill="#FFB6B6"/>
<path d="M94.8903 31.9922C94.8903 31.9922 89.6831 33.5984 90.9234 39.6997C92.1636 45.801 107.817 57.3112 110.285 59.2418C112.752 61.1723 133.286 58.5701 133.286 58.5701L138.59 51.822L118.592 49.0007L94.8903 31.9922Z" fill="#F9E8E8"/>
<path d="M115.487 11.8266C114.113 12.5022 112.556 11.523 111.353 10.5493L111.784 10.9125C109.697 12.9801 108.742 15.9337 108.291 18.8363C107.838 21.7358 107.815 24.6965 107.238 27.5768C106.66 30.454 105.43 33.3515 103.095 35.134C99.967 37.5216 95.6175 37.415 91.7414 36.7328C91.6897 36.7228 91.6416 36.7154 91.59 36.7055C92.6 33.6961 92.9904 30.5142 92.7377 27.3507C91.7334 30.5338 89.9978 33.4389 87.6692 35.8345C85.0969 35.1566 82.5839 34.2721 80.1547 33.1896C78.5829 32.4873 76.8883 31.5222 76.437 29.8633C75.9847 28.2171 76.9776 26.4752 78.3184 25.419C79.6592 24.3628 81.3125 23.802 82.8445 23.0436C84.3742 22.2887 85.8845 21.2193 86.4836 19.6222C87.8655 15.948 83.7781 11.7902 85.3171 8.1767C86.0761 6.39975 87.9698 5.41799 89.7514 4.65778C92.4713 3.50027 95.2665 2.52753 98.1178 1.74621C100.621 1.05989 103.236 0.519669 105.798 0.926444C108.359 1.33321 110.88 2.85912 111.825 5.27236C113.366 5.77435 115.002 6.34118 116.001 7.62056C116.999 8.8969 116.942 11.1124 115.487 11.8266Z" fill="#010B13"/>
<path d="M73.0047 167.911H21.0566V168.525H73.0047V167.911Z" fill="#010B13"/>
<path d="M73.0047 174.054H21.0566V174.669H73.0047V174.054Z" fill="#010B13"/>
<path d="M218.931 167.911H166.982V168.525H218.931V167.911Z" fill="#010B13"/>
<path d="M218.931 174.054H166.982V174.669H218.931V174.054Z" fill="#010B13"/>
<path d="M164.739 94.0166C166.573 93.3402 167.223 90.5345 166.191 87.75C165.16 84.9654 162.836 83.2565 161.002 83.9329C159.168 84.6094 158.518 87.415 159.55 90.1996C160.581 92.9841 162.905 94.6931 164.739 94.0166Z" fill="#F9E8E8"/>
</g>
<defs>
<clipPath id="clip0_161_1307">
<rect width="244.65" height="189" fill="white" transform="translate(0.226562 0.786133)"/>
</clipPath>
</defs>
</svg>
