<svg width="322" height="244" viewBox="0 0 322 244" fill="none" xmlns="http://www.w3.org/2000/svg">
<path d="M209.629 53.2773C206.337 47.6105 202.425 41.5601 196.184 39.7154C188.958 37.5793 181.436 41.8475 175.048 46.0581C155.942 58.6503 137.52 72.2941 119.867 86.927L119.882 87.1472L160.644 84.2513C170.461 83.5539 180.616 82.7613 189.353 78.0427C192.669 76.2529 195.91 73.8618 199.639 73.6914C204.272 73.4795 208.259 76.7572 211.38 80.1826C229.841 100.446 234.805 131.459 255.591 149.257C242.815 116.039 227.446 83.9453 209.629 53.2773Z" fill="#F2F2F2"/>
<path d="M318.227 217.326L316.369 217.328C300.51 196.009 285.618 173.989 271.692 151.267C261.967 135.414 252.741 119.254 244.015 102.786C243.501 101.816 242.988 100.845 242.477 99.8726C238.867 92.9998 235.344 86.0809 231.909 79.1159C228.866 72.949 225.895 66.7464 222.995 60.508C222.167 58.7251 221.362 56.9372 220.561 55.141C218.673 50.9236 216.825 46.6813 214.83 42.5199C212.819 38.3147 210.408 33.9357 206.933 30.7784C206.486 30.3668 206.019 29.9793 205.532 29.6173C204.981 29.2028 204.4 28.8284 203.796 28.4969C203.736 28.4612 203.674 28.4299 203.612 28.3942C202.136 27.5899 200.504 27.1119 198.823 26.9911C195.325 26.7625 192.074 28.237 189.011 29.8411C183.843 32.5608 178.75 35.4369 173.733 38.4693C157.063 48.564 141.302 60.1526 126.642 73.0937L126.53 73.1921C107.416 90.0267 90.271 109.041 75.4461 129.848C74.9916 130.493 73.9525 129.877 74.4116 129.234C76.2115 126.696 78.0479 124.188 79.9206 121.707C93.8868 103.203 109.72 86.2191 127.157 71.041C129.107 69.3398 131.079 67.6625 133.073 66.009C142.861 57.8753 153.098 50.3187 163.732 43.3777C166.988 41.2504 170.28 39.1871 173.608 37.1876C175.812 35.8573 178.031 34.5537 180.265 33.2768C183.09 31.6641 185.929 30.0693 188.815 28.577C191.642 27.1072 194.64 25.7894 197.848 25.7369C200.159 25.6915 202.432 26.2526 204.448 27.3659C204.508 27.4015 204.575 27.4329 204.636 27.4728C205.867 28.1773 207.008 29.0317 208.033 30.0176C212.623 34.3896 215.634 41.2541 217.978 46.523C219.158 49.1821 220.353 51.8294 221.563 54.465C226.13 64.4798 230.882 74.4049 235.818 84.2404C238.457 89.4911 241.148 94.7194 243.89 99.9252C244.31 100.734 244.738 101.543 245.166 102.347C255.078 121.03 265.636 139.335 276.84 157.262C290.144 178.547 303.389 197.607 318.227 217.326Z" fill="#E4E4E4"/>
<path d="M147.964 145.733C147.964 145.733 145.754 150.769 146.245 151.487C146.736 152.206 140.129 149.098 140.129 149.098C140.129 149.098 142.339 144.062 142.348 143.463C142.357 142.863 147.964 145.733 147.964 145.733Z" fill="#FFB9B9"/>
<path d="M220.944 215.511C220.944 215.511 221.193 211.501 225.051 211.963L220.944 215.511Z" fill="#010B13"/>
<path d="M219.876 211.711C220.944 211.71 221.823 210.83 221.84 209.746C221.856 208.662 221.003 207.785 219.936 207.786C218.868 207.787 217.989 208.667 217.972 209.751C217.956 210.834 218.809 211.712 219.876 211.711Z" fill="#F9E8E8"/>
<path d="M220.101 213.031L219.561 213.03L219.509 216.89L220.049 216.891L220.101 213.031Z" fill="#010B13"/>
<path d="M89.9594 97.7801C89.9448 98.7595 89.8992 99.7307 89.8225 100.694C89.3898 106.248 87.9279 111.686 85.5138 116.721C85.495 116.764 85.4732 116.804 85.4545 116.844C85.3423 117.077 85.227 117.31 85.1087 117.541C84.3918 118.965 83.5994 120.349 82.7351 121.688C78.7865 127.832 73.4239 132.919 67.1211 136.497C60.8183 140.075 53.7693 142.036 46.5972 142.205L46.6552 167.453L52.3368 164.433L53.3145 166.376L46.6611 169.913L46.7732 216.806L46.773 217.432L42.4 218.422L42.4183 217.792L44.9106 142.209C39.1409 142.13 33.4623 140.888 28.2047 138.554C22.947 136.219 18.215 132.84 14.2833 128.612C14.0126 128.324 13.745 128.026 13.4834 127.731C13.4714 127.719 13.4626 127.707 13.4536 127.698C10.1802 124.014 7.55139 119.786 5.6779 115.191C5.71949 115.24 5.76414 115.286 5.80573 115.335C1.57211 104.916 1.4484 93.1827 5.45992 82.5402C9.47145 71.8976 17.3145 63.1516 27.3818 58.0941C27.534 58.0172 27.6893 57.9434 27.8415 57.8665C37.7976 53.0213 49.1232 52.1236 59.5734 55.3513C70.0236 58.5791 78.8357 65.6967 84.2628 75.2934C84.5221 75.7476 84.7721 76.2109 85.0131 76.6774C88.3767 83.154 90.0771 90.4087 89.9594 97.7801Z" fill="#F2F2F2"/>
<path d="M83.8568 117.403C115.587 117.367 141.703 91.2302 142.188 59.0252C142.673 26.8201 117.344 0.74208 85.6133 0.778253C53.8828 0.814426 27.767 26.9511 27.2819 59.1562C26.7969 91.3612 52.1263 117.439 83.8568 117.403Z" fill="#FFB6B6"/>
<path opacity="0.2" d="M42.9022 20.1007C29.9761 49.7467 43.0084 84.0224 72.0126 96.6572C83.0167 101.451 95.2833 102.59 107.081 99.9148C118.878 97.2391 129.609 90.8835 137.76 81.7454C124.835 111.392 90.8432 125.185 61.8393 112.553C32.8353 99.9202 19.7994 65.6443 32.724 35.9982C35.256 30.1898 38.6936 24.8216 42.9025 20.1028L42.9022 20.1007Z" fill="#010B13"/>
<path d="M85.8883 220.624L80.1291 218.953L80.1488 218.317L83.0549 121.852L83.2001 117.043L83.2048 116.902L83.7115 100.049L84.4478 75.6212L84.4478 75.6181L84.948 59.0593L85.1062 59.0596L85.1923 76.9993L85.305 100.349L85.3868 116.918L85.3853 117.04L85.389 117.722L85.3889 117.725L85.545 150.022L85.5626 153.232L85.8842 219.982L85.8883 220.624Z" fill="#010B13"/>
<path d="M93.1015 146.095L83.4805 151.156L84.7577 153.667L94.3788 148.606L93.1015 146.095Z" fill="#010B13"/>
<path d="M81.6041 232.242L54.3555 232.192L54.348 232.818L81.5966 232.867L81.6041 232.242Z" fill="#CBCBCB"/>
<path d="M131.501 242.753L104.252 242.703L104.244 243.329L131.493 243.378L131.501 242.753Z" fill="#CBCBCB"/>
<path d="M209.36 234.975L182.111 234.926L182.104 235.551L209.352 235.601L209.36 234.975Z" fill="#CBCBCB"/>
<path d="M278.601 209.16L278.844 191.339C278.844 191.339 285.481 203.975 278.601 209.16Z" fill="#F1F1F1"/>
<path d="M197.57 210.085L184.758 197.992C184.758 197.992 198.568 201.421 197.57 210.085Z" fill="#F1F1F1"/>
<path d="M62.0562 214.067L62.2988 196.246C62.2988 196.246 68.9359 208.882 62.0562 214.067Z" fill="#F1F1F1"/>
<path d="M62.4196 214.063L49.6074 201.97C49.6074 201.97 63.4173 205.398 62.4196 214.063Z" fill="#F1F1F1"/>
<path d="M108.874 227.023L109.176 204.862C109.176 204.862 117.429 220.575 108.874 227.023Z" fill="#F1F1F1"/>
<path d="M109.325 227.018L93.3926 211.98C93.3926 211.98 110.565 216.243 109.325 227.018Z" fill="#F1F1F1"/>
<path d="M248.5 224.581L248.325 225.182L197.377 210.238L158.742 218.885L109.363 227.443L109.296 227.425L86.0479 220.706L80.1705 219.008L62.2196 213.818L47.1475 217.228L42.7408 218.224L33.1602 220.393L33.037 219.785L42.7581 217.585L47.1465 216.592L62.2461 213.176L62.319 213.195L80.191 218.36L86.0441 220.051L109.402 226.805L158.631 218.274L197.404 209.596L197.48 209.615L248.5 224.581Z" fill="#CBCBCB"/>
<path d="M159.172 38.4274L163.104 35.268C160.091 34.9319 158.826 36.6057 158.297 37.9294C155.954 36.9376 153.367 38.2427 153.367 38.2427L161.099 41.1007C160.722 40.0374 160.053 39.1099 159.17 38.4271L159.172 38.4274Z" fill="#010B13"/>
<path d="M258.135 59.7399L262.067 56.5805C259.054 56.2444 257.789 57.9182 257.26 59.2419C254.917 58.2501 252.33 59.5552 252.33 59.5552L260.061 62.4132C259.685 61.3499 259.016 60.4224 258.133 59.7396L258.135 59.7399Z" fill="#010B13"/>
<path d="M149.961 96.8258L153.894 93.6665C150.88 93.3303 149.615 95.0041 149.086 96.3278C146.743 95.336 144.156 96.6411 144.156 96.6411L151.888 99.4992C151.511 98.4358 150.842 97.5084 149.959 96.8255L149.961 96.8258Z" fill="#010B13"/>
<path d="M120.125 231.306L123.823 232.54L131.103 220.26L125.644 218.438L120.125 231.306Z" fill="#FFB9B9"/>
<path d="M151.511 234.585L155.6 234.582L156.527 222.23L150.495 222.423L151.511 234.585Z" fill="#FFB9B9"/>
<path d="M137.787 149.043L138.844 146.953L147.517 151.386L147.233 153.214L148.871 155.433C148.871 155.433 151.675 156.997 151.084 162.221L150.497 167.183L149.761 173.582L154.026 189.378L156.031 210.268L157.454 227.111L149.366 226.726L142.316 199.311L128.774 228.831L119.815 226.487L132.581 197.229L134.303 184.954C134.303 184.954 133.372 178.426 138.32 173.982L137.583 171.633L137.625 168.737L135.259 154.921L137.787 149.043Z" fill="#010B13"/>
<path opacity="0.2" d="M137.165 178.899L136.762 179.012L142.127 199.351L142.53 199.239L137.165 178.899Z" fill="#010B13"/>
<path d="M137.61 174.957L150.312 174.967L150.33 173.642L137.627 173.633L137.61 174.957Z" fill="#D6D6E3"/>
<path d="M150.308 175.75C150.591 175.75 150.83 175.165 150.84 174.444C150.851 173.723 150.629 173.139 150.346 173.139C150.062 173.139 149.824 173.724 149.813 174.445C149.803 175.166 150.024 175.75 150.308 175.75Z" fill="#D6D6E3"/>
<path d="M150.988 143.056C152.871 139.678 151.714 135.454 148.403 133.619C145.092 131.785 140.881 133.036 138.998 136.413C137.115 139.791 138.272 144.015 141.583 145.849C144.894 147.684 149.104 146.433 150.988 143.056Z" fill="#FFB9B9"/>
<path d="M134.414 137.27C137.773 137.266 140.538 134.499 140.589 131.089C140.641 127.68 137.959 124.919 134.6 124.923C131.241 124.927 128.476 127.694 128.425 131.103C128.373 134.513 131.055 137.273 134.414 137.27Z" fill="#010B13"/>
<path d="M126.79 130.41C126.538 131.23 126.455 132.091 126.546 132.939C126.637 133.788 126.901 134.605 127.321 135.339C127.741 136.073 128.308 136.709 128.986 137.205C129.663 137.702 130.438 138.048 131.259 138.223C132.081 138.398 132.932 138.398 133.759 138.222C134.586 138.046 135.371 137.699 136.064 137.202C136.757 136.705 137.344 136.069 137.786 135.334C138.229 134.6 138.519 133.782 138.636 132.934C138.178 134.423 137.187 135.691 135.861 136.486C134.536 137.282 132.971 137.547 131.48 137.23C129.988 136.912 128.678 136.034 127.809 134.771C126.94 133.507 126.577 131.951 126.79 130.41Z" fill="#010B13"/>
<path d="M150.81 137.795C150.965 139.391 150.595 141.003 149.759 142.382C148.923 143.76 147.666 144.827 146.184 145.418C144.702 146.009 143.078 146.09 141.562 145.65C140.047 145.21 138.725 144.272 137.802 142.982C136.879 141.692 136.405 140.122 136.455 138.515C136.505 136.908 137.076 135.354 138.079 134.094C139.082 132.834 140.46 131.938 142.002 131.545C143.543 131.152 145.161 131.283 146.605 131.92C147.822 130.933 149.307 131.238 150.503 132.274C151.855 133.447 152.25 134.253 153.283 136.181C152.236 136.333 151.857 137.645 150.81 137.795Z" fill="#010B13"/>
<path d="M125.247 158.636C125.293 160.7 125.385 164.761 125.382 164.968C125.379 165.186 128.315 171.559 129.584 174.301C129.674 174.495 129.755 174.67 129.827 174.823C129.925 175.036 130.081 175.214 130.278 175.338C130.474 175.462 130.702 175.525 130.934 175.52L136.657 175.411C136.971 175.406 137.273 175.277 137.5 175.052C137.727 174.828 137.861 174.524 137.874 174.205L138.889 148.631C138.893 148.547 138.879 148.463 138.85 148.384C138.821 148.306 138.777 148.234 138.72 148.174C138.663 148.113 138.594 148.065 138.518 148.033C138.442 148 138.36 147.983 138.277 147.983L130.899 147.989C130.588 147.99 130.281 148.079 130.015 148.248C129.748 148.416 129.532 148.657 129.393 148.942L125.741 156.389C125.399 157.089 125.229 157.86 125.247 158.636Z" fill="#F9E8E8"/>
<path d="M138.1 172.478C139.579 171.573 140.913 170.44 142.053 169.12C144.699 166.141 146.337 162.385 146.72 158.415C147.06 155.018 146.434 152.494 144.859 150.911C142.857 148.901 140.089 149.195 139.972 149.208L139.848 149.223L137.953 150.835L138.473 151.471L140.171 150.028C140.684 150.002 142.778 149.996 144.286 151.515C145.674 152.915 146.219 155.212 145.907 158.342C145.542 162.122 143.986 165.7 141.471 168.541C140.386 169.797 139.12 170.878 137.717 171.746L138.1 172.478Z" fill="#F9E8E8"/>
<path d="M127.458 162.725L127.398 163L137.468 165.096L137.527 164.821L127.458 162.725Z" fill="#010B13"/>
<path d="M134.287 148.036L133.438 164.139L133.707 164.15L134.556 148.048L134.287 148.036Z" fill="#010B13"/>
<path d="M125.221 158.615C125.269 160.676 125.363 164.732 125.36 164.939C125.357 165.157 128.287 171.523 129.553 174.263L127.325 159.886C127.238 159.333 127.009 158.815 126.66 158.386C126.311 157.956 125.855 157.631 125.338 157.442C125.251 157.827 125.211 158.222 125.221 158.615Z" fill="#010B13"/>
<path d="M139.965 188.743C139.753 188.46 139.606 188.133 139.533 187.784C139.46 187.435 139.464 187.072 139.544 186.722C139.624 186.373 139.778 186.044 139.996 185.759C140.213 185.474 140.489 185.24 140.803 185.073L140.389 179.501L143.664 178.367L144.14 186.246C144.371 186.796 144.394 187.417 144.206 187.99C144.017 188.564 143.628 189.051 143.115 189.358C142.601 189.666 141.997 189.773 141.417 189.66C140.837 189.546 140.321 189.22 139.967 188.743L139.965 188.743Z" fill="#FFB7B7"/>
<path d="M138.274 155.18C138.223 154.334 138.449 153.492 138.918 152.785C139.386 152.078 140.071 151.546 140.863 151.274C141.561 151.04 142.311 151.041 143.003 151.276C143.742 151.534 144.38 152.023 144.826 152.675C145.272 153.326 145.504 154.107 145.489 154.907L145.337 183.17L139.581 183.383L138.274 155.18Z" fill="#F2F2F2"/>
<path d="M155.101 233.295C155.101 233.295 151.981 233.337 151.422 233.195C150.863 233.053 150.033 238.031 151.699 238.275C153.366 238.52 160.165 238.578 160.165 238.578C160.165 238.578 165.46 238.016 165.015 236.591C164.57 235.166 157.276 232.775 157.276 232.775C157.276 232.775 156.263 231.026 155.101 233.295Z" fill="#010B13"/>
<path d="M123.431 231.905C123.431 231.905 120.432 231.076 119.936 230.784C119.439 230.492 117.287 235.049 118.815 235.748C120.344 236.447 126.838 238.397 126.838 238.397C126.838 238.397 132.062 239.331 132.024 237.836C131.987 236.341 125.655 232.01 125.655 232.01C125.655 232.01 125.162 230.045 123.431 231.905Z" fill="#010B13"/>
</svg>
