<svg width="90" height="66" viewBox="0 0 90 66" fill="none" xmlns="http://www.w3.org/2000/svg">
<g opacity="0.85">
<path d="M58.8177 14.4875C57.9422 12.9661 56.8991 11.3423 55.202 10.8553C53.2367 10.2914 51.1639 11.4533 49.4009 12.5979C44.1282 16.0211 39.0378 19.7264 34.1532 23.697L34.1566 23.7563L45.3045 22.9108C47.9893 22.7072 50.767 22.4774 53.1738 21.1921C54.0871 20.7046 54.9827 20.0552 56.0022 20.0033C57.2687 19.9388 58.3442 20.8155 59.1823 21.7333C64.14 27.163 65.365 35.5103 70.9682 40.2721C67.6184 31.3432 63.5555 22.7213 58.8177 14.4875Z" fill="#F2F2F2"/>
<path d="M87.8518 58.459L87.3439 58.4626C83.101 52.7434 79.125 46.8336 75.4162 40.7332C72.8259 36.4771 70.3734 32.1372 68.0586 27.7137C67.9223 27.4532 67.7864 27.1924 67.6508 26.9311C66.6934 25.0849 65.7601 23.2262 64.851 21.3548C64.0457 19.698 63.2601 18.0314 62.4941 16.355C62.2755 15.8759 62.0629 15.3954 61.8516 14.9127C61.3536 13.7793 60.8666 12.6391 60.3393 11.5209C59.8074 10.391 59.1672 9.21488 58.231 8.36967C58.1108 8.25949 57.9847 8.15581 57.8532 8.05904C57.7043 7.94822 57.5473 7.84827 57.3836 7.75992C57.3673 7.7504 57.3505 7.74206 57.3338 7.73255C56.9338 7.51817 56.4901 7.39198 56.0313 7.36213C55.0764 7.30612 54.1819 7.70865 53.3381 8.14578C51.9145 8.88691 50.5109 9.67006 49.1273 10.4952C44.5299 13.242 40.1745 16.3899 36.1143 19.9006L36.0834 19.9272C30.7896 24.4941 26.0248 29.6453 21.8863 35.2757C21.7594 35.4501 21.4781 35.2858 21.6062 35.1117C22.1088 34.4252 22.6211 33.7462 23.1433 33.0748C27.0374 28.0662 31.4354 23.4644 36.2637 19.3466C36.8038 18.8851 37.3497 18.4299 37.9015 17.9812C40.6102 15.7738 43.4392 13.7212 46.3739 11.8339C47.2726 11.2554 48.1808 10.6942 49.0985 10.1501C49.7065 9.78806 50.3183 9.43324 50.934 9.08558C51.7128 8.6465 52.4952 8.21221 53.2899 7.80547C54.0688 7.4049 54.8933 7.045 55.77 7.02571C56.4016 7.00978 57.0204 7.15734 57.5665 7.4541C57.5828 7.46362 57.6008 7.47195 57.6173 7.48263C57.9509 7.67047 58.259 7.8989 58.5348 8.16292C59.7706 9.33367 60.5643 11.1786 61.1823 12.5946C61.4935 13.3092 61.8088 14.0207 62.1282 14.7289C63.3338 17.4202 64.5902 20.0871 65.8975 22.7295C66.5964 24.1401 67.3094 25.5446 68.0367 26.943C68.1479 27.1603 68.2615 27.3775 68.3752 27.5935C71.0045 32.612 73.8118 37.5276 76.7972 42.3404C80.3423 48.0547 83.8808 53.1693 87.8518 58.459Z" fill="#E4E4E4"/>
<path d="M41.567 39.3162C41.567 39.3162 40.9427 40.6744 41.0737 40.8669C41.2048 41.0593 39.4153 40.2338 39.4153 40.2338C39.4153 40.2338 40.0395 38.8755 40.0445 38.7143C40.0495 38.5531 41.567 39.3162 41.567 39.3162Z" fill="#FFB9B9"/>
<path d="M61.4506 57.9318C61.4506 57.9318 61.5356 56.851 62.5875 56.9692L61.4506 57.9318Z" fill="#090814"/>
<path d="M61.1629 56.9148C61.4543 56.9128 61.6978 56.6747 61.7069 56.383C61.7159 56.0913 61.487 55.8566 61.1956 55.8586C60.9042 55.8606 60.6606 56.0987 60.6516 56.3904C60.6426 56.6821 60.8715 56.9169 61.1629 56.9148Z" fill="#F9E8E8"/>
<path d="M61.2256 57.2622L61.0801 57.2627L61.0522 58.2953L61.1977 58.2948L61.2256 57.2622Z" fill="#090814"/>
<path d="M25.6624 26.4432C25.6544 26.706 25.638 26.9667 25.6131 27.2252C25.4726 28.7163 25.0527 30.1778 24.3756 31.5325C24.3704 31.544 24.3643 31.5548 24.359 31.5655C24.3275 31.6283 24.2952 31.6911 24.2621 31.7531C24.0614 32.1363 23.8403 32.509 23.5998 32.8695C22.501 34.5244 21.0223 35.8974 19.2942 36.8672C17.566 37.837 15.6418 38.3738 13.6915 38.43L13.6029 45.2052L15.1598 44.3862L15.4175 44.9059L13.5943 45.8651L13.4309 58.4483L13.4283 58.6163L12.2355 58.8885L12.2431 58.7196L13.233 38.4338C11.6649 38.4215 10.1264 38.0967 8.70687 37.4783C7.28731 36.86 6.01496 35.9604 4.96368 34.8318C4.89127 34.7548 4.81976 34.6754 4.74986 34.5967C4.74667 34.5935 4.74431 34.5902 4.74192 34.5877C3.86733 33.6043 3.1702 32.4736 2.67991 31.2435C2.69102 31.2566 2.70296 31.2689 2.71407 31.282C1.6063 28.4925 1.62117 25.3442 2.75563 22.4823C3.89008 19.6204 6.05823 17.2615 8.81577 15.8891C8.85748 15.8682 8.89998 15.8482 8.94169 15.8273C11.6681 14.512 14.7505 14.2539 17.5779 15.1041C20.4052 15.9543 22.7712 17.8508 24.2068 20.4178C24.2754 20.5392 24.3415 20.6632 24.4051 20.788C25.2926 22.5208 25.7249 24.4649 25.6624 26.4432Z" fill="#F2F2F2"/>
<path d="M23.9452 31.9071C32.6038 31.8464 39.8406 24.7717 40.1092 16.1054C40.3778 7.43915 33.5764 0.463005 24.9179 0.523768C16.2593 0.584531 9.02251 7.65919 8.75393 16.3255C8.48535 24.9917 15.2867 31.9679 23.9452 31.9071Z" fill="#FFB6B6"/>
<path opacity="0.2" d="M13.1807 5.75923C9.52547 13.7631 12.9392 22.9718 20.806 26.3275C23.7907 27.6006 27.1355 27.8878 30.3683 27.1483C33.6012 26.4088 36.5586 24.6802 38.823 22.2064C35.1679 30.2104 25.8275 33.9791 17.9607 30.6241C10.094 27.2691 6.67923 18.0603 10.334 10.0565C11.05 8.48831 12.0114 7.03723 13.1807 5.75981L13.1807 5.75923Z" fill="black"/>
<path d="M24.2417 59.3574L22.7069 58.9147L22.7142 58.7447L23.7995 32.9722L23.8536 31.6872L23.8553 31.6496L24.0447 27.1471L24.3196 20.6206L24.3196 20.6197L24.5062 16.1957L24.5486 16.1957L24.5143 20.9883L24.4698 27.226L24.4388 31.6524L24.438 31.6851L24.4368 31.8674L24.4368 31.8682L24.3754 40.4961L24.3699 41.3536L24.2427 59.1858L24.2417 59.3574Z" fill="#090814"/>
<path d="M26.4901 39.4411L23.8262 40.8096L24.1614 41.4694L26.8254 40.101L26.4901 39.4411Z" fill="#090814"/>
<path d="M23.0712 62.4459L15.5781 62.4482L15.5741 62.6202L23.0672 62.6178L23.0712 62.4459Z" fill="#CBCBCB"/>
<path d="M36.7666 65.232L29.2734 65.2344L29.2694 65.4063L36.7625 65.4039L36.7666 65.232Z" fill="#CBCBCB"/>
<path d="M58.206 63.1226L50.7129 63.125L50.7088 63.2969L58.2019 63.2946L58.206 63.1226Z" fill="#CBCBCB"/>
<path d="M77.3276 56.2117L77.459 51.4434C77.459 51.4434 79.2014 54.8168 77.3276 56.2117Z" fill="#F1F1F1"/>
<path d="M55.0149 56.4917L51.5684 53.2568C51.5684 53.2568 55.3239 54.1575 55.0149 56.4917Z" fill="#F1F1F1"/>
<path d="M17.7495 57.6112L17.8809 52.8428C17.8809 52.8428 19.6233 56.2162 17.7495 57.6112Z" fill="#F1F1F1"/>
<path d="M17.8254 57.6099L14.3789 54.375C14.3789 54.375 18.1345 55.2757 17.8254 57.6099Z" fill="#F1F1F1"/>
<path d="M30.5906 61.0536L30.7539 55.124C30.7539 55.124 32.9207 59.3189 30.5906 61.0536Z" fill="#F1F1F1"/>
<path d="M30.6862 61.0508L26.4004 57.0283C26.4004 57.0283 31.0705 58.1483 30.6862 61.0508Z" fill="#F1F1F1"/>
<path d="M68.9666 60.3257L68.9163 60.4903L54.9704 56.4459L44.3245 58.846L30.7271 61.2314L30.7088 61.2263L24.3447 59.4082L22.7357 58.9488L17.8218 57.5444L13.6686 58.4908L12.4543 58.7672L9.8143 59.3691L9.78258 59.2029L12.4613 58.5924L13.6705 58.3168L17.8313 57.3688L17.8513 57.3738L22.7437 58.7715L24.3459 59.2292L30.74 61.0566L44.2961 58.6789L54.98 56.2702L55.0008 56.2753L68.9666 60.3257Z" fill="#CBCBCB"/>
<path d="M44.9625 10.6665L46.0514 9.80763C45.2286 9.72163 44.8755 10.1754 44.7253 10.5334C44.0885 10.2694 43.3755 10.6257 43.3755 10.6257L45.4783 11.385C45.3798 11.0986 45.2007 10.8493 44.9621 10.6664L44.9625 10.6665Z" fill="#090814"/>
<path d="M72.1226 16.3159L73.2116 15.457C72.3887 15.371 72.0356 15.8248 71.8855 16.1828C71.2487 15.9189 70.5356 16.2751 70.5356 16.2751L72.6384 17.0344C72.54 16.748 72.3609 16.4987 72.1222 16.3158L72.1226 16.3159Z" fill="#090814"/>
<path d="M42.2613 26.2632L43.3503 25.4043C42.5274 25.3183 42.1743 25.772 42.0241 26.1301C41.3873 25.8661 40.6743 26.2224 40.6743 26.2224L42.7771 26.9816C42.6786 26.6952 42.4996 26.446 42.2609 26.2631L42.2613 26.2632Z" fill="#090814"/>
<path d="M33.6784 62.2011L34.6809 62.527L36.7161 59.2152L35.2365 58.7341L33.6784 62.2011Z" fill="#FFB9B9"/>
<path d="M42.2929 63.0566L43.4037 63.0495L43.7063 59.7347L42.0668 59.7954L42.2929 63.0566Z" fill="#FFB9B9"/>
<path d="M38.8181 40.1665L39.1139 39.6044L41.4508 40.7804L41.3663 41.2711L41.802 41.8637C41.802 41.8637 42.557 42.2792 42.3752 43.681L42.1956 45.0128L41.9694 46.7301L43.063 50.9604L43.5221 56.5603L43.8395 61.0756L41.6446 60.9843L39.8424 53.6419L36.0441 61.5796L33.6206 60.9642L37.2071 53.098L37.7252 49.8032C37.7252 49.8032 37.4991 48.0537 38.8607 46.8546L38.6703 46.2255L38.6937 45.4486L38.1075 41.7468L38.8181 40.1665Z" fill="#090814"/>
<path opacity="0.2" d="M38.5327 48.178L38.4219 48.209L39.7935 53.6486L39.9044 53.6176L38.5327 48.178Z" fill="black"/>
<path d="M38.6452 47.1385L42.1348 47.1289L42.1443 46.7669L38.6547 46.7765L38.6452 47.1385Z" fill="#D6D6E3"/>
<path d="M42.1302 47.3402C42.2072 47.3397 42.2743 47.1826 42.2801 46.9892C42.2858 46.7958 42.2281 46.6393 42.1511 46.6398C42.0741 46.6403 42.007 46.7974 42.0013 46.9908C41.9955 47.1842 42.0532 47.3406 42.1302 47.3402Z" fill="#D6D6E3"/>
<path d="M42.4019 38.6C42.9341 37.6905 42.6375 36.5605 41.7393 36.076C40.841 35.5915 39.6815 35.936 39.1492 36.8454C38.617 37.7549 38.9137 38.8849 39.8119 39.3694C40.7101 39.8539 41.8697 39.5094 42.4019 38.6Z" fill="#FFB9B9"/>
<path d="M37.8634 37.0823C38.7801 37.0759 39.5462 36.3269 39.5747 35.4094C39.6031 34.492 38.883 33.7534 37.9664 33.7598C37.0497 33.7663 36.2836 34.5152 36.2552 35.4327C36.2267 36.3502 36.9468 37.0887 37.8634 37.0823Z" fill="#090814"/>
<path d="M35.8075 35.2368C35.735 35.4584 35.7086 35.6908 35.7301 35.9196C35.7515 36.1483 35.8202 36.3683 35.9319 36.5657C36.0437 36.7631 36.196 36.9336 36.3792 37.0664C36.5625 37.1993 36.7727 37.2915 36.9966 37.3375C37.2205 37.3834 37.4533 37.3819 37.6802 37.3332C37.907 37.2845 38.1231 37.1896 38.3148 37.0544C38.5064 36.9192 38.6695 36.7467 38.7936 36.5479C38.9178 36.349 39.0004 36.1281 39.0361 35.899C38.9045 36.3013 38.6283 36.6449 38.2624 36.8617C37.8965 37.0784 37.4677 37.1525 37.0611 37.0691C36.6545 36.9857 36.2999 36.751 36.0677 36.4115C35.8355 36.0721 35.7426 35.6528 35.8075 35.2368Z" fill="#090814"/>
<path d="M42.3694 37.1943C42.4049 37.624 42.2971 38.0587 42.0629 38.4312C41.8287 38.8037 41.481 39.0932 41.0739 39.2547C40.6667 39.4162 40.2227 39.4408 39.8107 39.3246C39.3987 39.2084 39.0417 38.958 38.795 38.6121C38.5483 38.2662 38.4257 37.8442 38.4462 37.4114C38.4667 36.9786 38.6291 36.5592 38.9083 36.2183C39.1874 35.8773 39.5678 35.6338 39.9904 35.5254C40.413 35.417 40.8543 35.4499 41.2458 35.6189C41.5823 35.3513 41.9866 35.4309 42.3089 35.7082C42.6732 36.0218 42.7775 36.2382 43.0515 36.7557C42.7649 36.7983 42.656 37.1522 42.3694 37.1943Z" fill="#090814"/>
<path d="M35.3149 42.7819C35.319 43.3353 35.3273 44.4247 35.3256 44.4803C35.3238 44.5389 36.0954 46.2439 36.4288 46.9778C36.4525 47.0295 36.4738 47.0763 36.4927 47.1174C36.5184 47.1743 36.5602 47.222 36.613 47.2548C36.6659 47.2877 36.7275 47.3043 36.7907 47.3028L38.346 47.2649C38.4314 47.2629 38.5139 47.228 38.5764 47.1674C38.6389 47.1068 38.6766 47.0252 38.6815 46.9396L39.0626 40.0773C39.0638 40.0547 39.0606 40.0322 39.053 40.0112C39.0454 39.9902 39.0336 39.971 39.0184 39.9549C39.0031 39.9388 38.9847 39.9261 38.9642 39.9174C38.9437 39.9087 38.9215 39.9043 38.8989 39.9045L36.8944 39.9172C36.8097 39.9178 36.726 39.9423 36.653 39.9879C36.5799 40.0335 36.5203 40.0984 36.4811 40.1751L35.4585 42.1783C35.3626 42.3665 35.3133 42.5738 35.3149 42.7819Z" fill="#F9E8E8"/>
<path d="M38.7871 46.4851C39.192 46.2405 39.5583 45.9349 39.8727 45.5795C40.6026 44.7772 41.0619 43.7679 41.1819 42.7031C41.2878 41.7921 41.1281 41.1165 40.7074 40.6945C40.1726 40.1583 39.4205 40.2411 39.3887 40.2449L39.355 40.2489L38.8345 40.6838L38.9732 40.8536L39.4393 40.4644C39.5786 40.4566 40.1466 40.452 40.5495 40.8571C40.9202 41.2303 41.0587 41.8453 40.9614 42.6848C40.8473 43.6986 40.4109 44.6599 39.7174 45.4251C39.4181 45.7632 39.0702 46.0547 38.6862 46.2896L38.7871 46.4851Z" fill="#F9E8E8"/>
<path d="M35.8867 43.8694L35.8691 43.9443L38.6327 44.499L38.6502 44.4241L35.8867 43.8694Z" fill="#090814"/>
<path d="M37.8067 39.9442L37.5254 44.2451L37.5976 44.248L37.8789 39.9471L37.8067 39.9442Z" fill="#090814"/>
<path d="M35.2986 42.7682C35.3033 43.32 35.313 44.4061 35.3114 44.4616C35.3097 44.52 36.0775 46.221 36.4093 46.9531L35.8625 43.1058C35.8414 42.9578 35.7813 42.8194 35.6886 42.7049C35.5958 42.5903 35.4737 42.5038 35.3346 42.454C35.3095 42.5572 35.2974 42.6628 35.2986 42.7682Z" fill="#090814"/>
<path d="M39.2529 50.8189C39.1966 50.7434 39.1579 50.6559 39.1396 50.5624C39.1213 50.4689 39.1238 50.3718 39.147 50.2778C39.1701 50.1839 39.2133 50.0955 39.2735 50.0188C39.3337 49.942 39.4095 49.8789 39.4955 49.8338L39.4058 48.3403L40.2992 48.0313L40.3963 50.1432C40.4568 50.2905 40.4606 50.4569 40.407 50.611C40.3534 50.7651 40.2461 50.8961 40.1054 50.9793C39.9646 51.0626 39.8002 51.0922 39.6433 51.0626C39.4863 51.0331 39.3477 50.9464 39.2536 50.8189L39.2529 50.8189Z" fill="#FFB7B7"/>
<path d="M38.9094 41.8453C38.8987 41.6191 38.9631 41.3932 39.0924 41.2033C39.2218 41.0134 39.4087 40.8703 39.6237 40.7965C39.8133 40.733 40.016 40.7323 40.2019 40.7943C40.4007 40.8624 40.5712 40.9926 40.6893 41.1665C40.8073 41.3404 40.867 41.5492 40.8597 41.7633L40.7104 49.3301L39.1544 49.3943L38.9094 41.8453Z" fill="#F2F2F2"/>
<path d="M43.2934 62.6958C43.2934 62.6958 42.4394 62.7114 42.287 62.6738C42.1346 62.6361 41.8875 63.9846 42.3426 64.0486C42.7976 64.1125 44.658 64.119 44.658 64.119C44.658 64.119 46.1095 63.9595 45.9934 63.5743C45.8772 63.1891 43.8908 62.552 43.8908 62.552C43.8908 62.552 43.6205 62.0799 43.2934 62.6958Z" fill="#090814"/>
<path d="M34.5848 62.3399C34.5848 62.3399 33.7663 62.122 33.6315 62.0441C33.4967 61.9663 32.8862 63.1987 33.3022 63.3844C33.7182 63.5701 35.49 64.0838 35.49 64.0838C35.49 64.0838 36.9181 64.3259 36.9145 63.923C36.9109 63.52 35.1943 62.3642 35.1943 62.3642C35.1943 62.3642 35.0679 61.8354 34.5848 62.3399Z" fill="#090814"/>
</g>
</svg>
