<svg width="400" height="217" viewBox="0 0 400 217" fill="none" xmlns="http://www.w3.org/2000/svg">
<g clip-path="url(#clip0_249_443)">
<path d="M217.061 114.792V115.263C217.06 119.591 215.343 123.741 212.289 126.801C209.234 129.861 205.091 131.58 200.771 131.579H16.9056C12.5868 131.578 8.44503 129.859 5.39117 126.8C2.33732 123.74 0.621505 119.59 0.621094 115.263V114.792H217.061Z" fill="#F2F2F2"/>
<path d="M39.0751 37.1225C25.788 40.4105 13.86 30.1685 11.7773 20.667L12.7024 20.5013C23.9017 18.021 36.4033 26.0417 39.0751 37.1225Z" fill="#512100"/>
<path d="M360.252 213.086C356.409 211.423 355.536 205.366 358.753 202.683C361.969 199.999 367.757 201.955 368.694 206.042L365.109 180.35C364.285 174.443 363.625 167.84 367.188 163.063C370.524 158.588 377.042 157.155 382.274 159.081C387.507 161.007 391.374 165.811 393.015 171.149C394.655 176.487 394.268 182.287 392.836 187.685C391.403 193.082 388.969 198.152 386.508 203.163C383.985 208.297 380.926 213.862 375.534 215.752C370.384 217.557 360.252 213.086 360.252 213.086Z" fill="#F2F2F2"/>
<path d="M377.093 158.594C379.449 165.96 380.57 173.666 380.412 181.4C380.264 189.099 378.884 196.724 376.324 203.985C374.867 208.104 373.02 212.074 370.81 215.842C370.714 216.019 370.691 216.227 370.746 216.421C370.8 216.615 370.927 216.78 371.101 216.882C371.275 216.984 371.481 217.014 371.676 216.966C371.872 216.918 372.041 216.796 372.149 216.626C376.117 209.832 378.937 202.426 380.494 194.71C382.074 186.958 382.39 179 381.431 171.146C380.891 166.745 379.939 162.404 378.588 158.181C378.284 157.233 376.786 157.638 377.093 158.594Z" fill="white"/>
<path d="M357.974 203.628L370.245 216.548C370.935 217.274 372.03 216.174 371.342 215.45L359.071 202.53C358.382 201.804 357.286 202.904 357.974 203.628Z" fill="white"/>
<path d="M347.551 154.845C347.114 154.846 346.691 154.689 346.36 154.402C338.783 149.459 332.039 143.34 326.38 136.275C326.034 135.946 325.83 135.494 325.812 135.016C325.794 134.538 325.963 134.072 326.283 133.718L330.003 129.603L330.769 130.298L327.05 134.413C326.908 134.569 326.835 134.776 326.845 134.986C326.856 135.197 326.949 135.395 327.105 135.536L327.159 135.594C332.762 142.596 339.444 148.658 346.952 153.552L347.02 153.604C347.176 153.745 347.382 153.819 347.592 153.809C347.802 153.798 348 153.705 348.141 153.548L355.398 145.518C355.533 145.369 355.607 145.174 355.604 144.973C355.6 144.771 355.521 144.578 355.382 144.433C353.7 143.515 352.059 142.514 350.503 141.458L351.083 140.601C352.63 141.651 354.263 142.646 355.936 143.556L356.036 143.628C356.214 143.789 356.359 143.984 356.461 144.201C356.564 144.419 356.623 144.654 356.635 144.894C356.647 145.134 356.611 145.374 356.531 145.601C356.45 145.827 356.325 146.036 356.164 146.214L348.907 154.244C348.746 154.422 348.552 154.567 348.335 154.67C348.118 154.773 347.883 154.832 347.643 154.843C347.612 154.845 347.581 154.845 347.551 154.845Z" fill="#FFB8B8"/>
<path d="M339.548 141.328C341.828 143.394 344.169 144.528 344.779 143.855C344.858 143.74 344.908 143.608 344.924 143.47C344.94 143.332 344.922 143.192 344.871 143.062C344.624 142.3 344.229 141.594 343.709 140.986C341.683 139.541 339.714 137.983 337.802 136.31C337.202 136.113 336.742 136.119 336.52 136.367C336.488 136.403 336.462 136.443 336.442 136.486C336.06 137.268 337.388 139.365 339.548 141.328Z" fill="#512100"/>
<path d="M325.813 124.681C325.832 125.152 326.037 125.597 326.381 125.918C329.443 129.709 332.809 133.243 336.444 136.486C339.104 138.864 341.92 141.061 344.873 143.062C345.364 143.399 345.86 143.725 346.361 144.046C346.69 144.335 347.113 144.493 347.55 144.491C347.581 144.491 347.612 144.486 347.643 144.486C347.883 144.475 348.119 144.416 348.336 144.313C348.554 144.21 348.748 144.065 348.909 143.886L356.165 135.86C356.491 135.499 356.66 135.024 356.635 134.538C356.611 134.053 356.396 133.597 356.036 133.271L355.938 133.198C348.016 128.911 341.245 122.77 336.201 115.298L336.123 115.205C335.763 114.879 335.289 114.709 334.805 114.734C334.32 114.758 333.865 114.974 333.539 115.334L326.283 123.36C326.122 123.538 325.997 123.747 325.917 123.973C325.836 124.2 325.801 124.44 325.813 124.681ZM326.847 124.629C326.841 124.525 326.856 124.422 326.891 124.324C326.925 124.226 326.979 124.136 327.048 124.059L334.304 116.028C334.374 115.95 334.46 115.887 334.555 115.843C334.649 115.798 334.752 115.773 334.857 115.769C335.047 115.758 335.235 115.817 335.384 115.935C340.503 123.5 347.36 129.722 355.38 134.079C355.519 134.223 355.599 134.415 355.603 134.616C355.607 134.816 355.534 135.011 355.4 135.161L348.139 143.192C348.07 143.27 347.986 143.333 347.892 143.378C347.798 143.422 347.695 143.447 347.591 143.451C347.381 143.461 347.175 143.388 347.018 143.249L346.95 143.197C345.855 142.493 344.775 141.756 343.71 140.986C341.684 139.541 339.715 137.983 337.803 136.31C333.941 132.936 330.379 129.231 327.157 125.24L327.105 125.183C326.95 125.039 326.857 124.84 326.847 124.629Z" fill="#FFB8B8"/>
<path d="M344.779 133.5C345.386 132.828 344.03 130.607 341.75 128.538C339.47 126.469 337.129 125.337 336.521 126.009C335.914 126.681 337.27 128.903 339.551 130.971C341.831 133.04 344.171 134.172 344.779 133.5Z" fill="#512100"/>
<path d="M299.184 210.509L292.849 210.509L289.834 186.023L299.185 186.024L299.184 210.509Z" fill="#FFB8B8"/>
<path d="M300.799 216.663L280.369 216.662V216.403C280.369 215.357 280.575 214.321 280.974 213.355C281.374 212.388 281.96 211.51 282.698 210.77C283.437 210.03 284.313 209.443 285.278 209.043C286.243 208.643 287.277 208.436 288.321 208.437H288.322L300.799 208.437L300.799 216.663Z" fill="#010B13"/>
<path d="M317.788 210.509L311.452 210.509L308.438 186.023L317.789 186.024L317.788 210.509Z" fill="#FFB8B8"/>
<path d="M319.404 216.663L298.975 216.662V216.403C298.975 215.357 299.18 214.321 299.58 213.355C299.979 212.388 300.565 211.51 301.304 210.77C302.042 210.03 302.919 209.443 303.883 209.043C304.848 208.643 305.882 208.436 306.926 208.437H306.927L319.405 208.437L319.404 216.663Z" fill="#010B13"/>
<path d="M322.041 111.555L320.528 201.493C320.523 201.778 320.46 202.059 320.342 202.318C320.224 202.577 320.054 202.809 319.842 203C319.63 203.19 319.382 203.334 319.112 203.424C318.842 203.514 318.557 203.547 318.274 203.521L310.86 202.846C310.373 202.802 309.918 202.586 309.575 202.238C309.232 201.89 309.023 201.431 308.986 200.943L304.645 144.843C304.635 144.711 304.575 144.588 304.477 144.499C304.379 144.41 304.251 144.362 304.12 144.365C303.988 144.367 303.862 144.421 303.768 144.513C303.673 144.606 303.618 144.731 303.613 144.863L301.444 202.248C301.424 202.783 301.197 203.29 300.812 203.662C300.427 204.033 299.913 204.241 299.378 204.241H291.427C290.9 204.241 290.394 204.04 290.01 203.678C289.627 203.317 289.395 202.822 289.363 202.296L283.797 111.038L316.873 102.753L322.041 111.555Z" fill="#010B13"/>
<path d="M298.049 27.1041C305.059 27.1041 310.742 21.4103 310.742 14.3865C310.742 7.36281 305.059 1.66895 298.049 1.66895C291.038 1.66895 285.355 7.36281 285.355 14.3865C285.355 21.4103 291.038 27.1041 298.049 27.1041Z" fill="#FFB8B8"/>
<path d="M282.665 114.23C282.445 114.018 282.269 113.763 282.148 113.482C282.027 113.2 281.963 112.898 281.96 112.592L281.104 51.2626C281.052 48.1428 281.989 45.087 283.779 42.534C285.57 39.9811 288.122 38.0624 291.069 37.0535C292.258 31.648 298.587 30.971 302.277 31.0519C303.198 31.0717 304.1 31.3138 304.908 31.7575C305.716 32.2013 306.405 32.8336 306.917 33.6009L309.562 37.5759L315.391 40.9997C318.089 42.5775 320.217 44.973 321.469 47.8409C322.72 50.7088 323.029 53.9007 322.353 56.9563L321.455 61.0466C318.295 75.5238 318.596 90.5446 322.333 104.883L324.139 111.782C324.233 112.142 324.24 112.518 324.159 112.881C324.078 113.244 323.912 113.582 323.675 113.867C323.437 114.152 323.135 114.376 322.793 114.52C322.452 114.665 322.081 114.725 321.711 114.697L319.613 114.535C319.069 114.493 318.556 114.261 318.166 113.879C317.775 113.496 317.531 112.988 317.478 112.444L317.131 108.966C317.124 108.902 317.094 108.843 317.047 108.8C316.999 108.757 316.937 108.733 316.873 108.733C316.809 108.733 316.747 108.757 316.7 108.8C316.652 108.843 316.623 108.902 316.616 108.966L316.28 112.333C316.224 112.902 315.96 113.43 315.54 113.817C315.12 114.204 314.572 114.422 314.002 114.431L284.321 114.889C284.309 114.889 284.296 114.889 284.284 114.889C283.679 114.89 283.098 114.654 282.665 114.23Z" fill="#FFB8B8"/>
<path d="M299.042 21.7175C299.094 23.5152 300.339 24.5553 301.869 25.497C303.398 26.4386 305.186 26.8469 306.938 27.2408C307.173 27.366 307.436 27.4283 307.703 27.4217C307.969 27.4152 308.229 27.34 308.458 27.2034C308.687 27.0668 308.877 26.8735 309.009 26.642C309.142 26.4105 309.212 26.1486 309.214 25.8818L310.821 19.7598C311.389 17.8042 311.803 15.8067 312.058 13.786C312.444 9.89777 311.525 5.71506 308.816 2.9038C306.107 0.0925421 301.41 -0.906112 298.164 1.25992C294.312 -3.66938 276.704 7.22129 281.047 10.649C281.82 11.2588 283.001 10.4872 283.982 10.4124C284.963 10.3376 286.062 10.5105 286.685 11.2731C287.499 12.2694 287.144 13.7536 287.48 14.9965C287.619 15.4338 287.842 15.8393 288.138 16.1895C288.434 16.5398 288.796 16.8279 289.204 17.0372C289.612 17.2465 290.057 17.3729 290.513 17.4091C290.97 17.4453 291.429 17.3905 291.864 17.248C292.675 16.8477 293.438 16.3563 294.138 15.7834C294.891 15.2814 295.841 14.9104 296.688 15.227C297.804 15.6444 298.201 17.0136 298.302 18.2031C298.472 19.3894 298.719 20.5634 299.042 21.7175Z" fill="#010B13"/>
<path opacity="0.2" d="M296.078 55.8018L294.011 81.1737L283.158 107.581L299.179 81.6915L296.078 55.8018Z" fill="black"/>
<path d="M280.62 117.415C281.213 116.939 281.694 116.338 282.029 115.655C282.365 114.972 282.547 114.224 282.562 113.463C282.578 112.702 282.427 111.946 282.12 111.25C281.813 110.554 281.357 109.934 280.785 109.433L287.699 92.2754L278.292 94.1787L273.168 110.18C272.392 111.199 272.017 112.468 272.112 113.746C272.208 115.024 272.768 116.222 273.687 117.114C274.605 118.006 275.818 118.529 277.096 118.585C278.374 118.64 279.628 118.224 280.62 117.415Z" fill="#FFB8B8"/>
<path d="M280.117 109.848L274.792 107.926C274.244 107.725 273.79 107.325 273.521 106.806C273.252 106.286 273.186 105.685 273.338 105.119L282.122 72.9025L283.461 43.7856C283.502 42.9067 283.716 42.0447 284.092 41.2495C284.468 40.4544 284.998 39.7421 285.651 39.154C286.304 38.5659 287.067 38.1137 287.896 37.8238C288.725 37.5339 289.603 37.412 290.48 37.4653C291.356 37.5185 292.214 37.7458 293.002 38.134C293.79 38.5221 294.493 39.0633 295.07 39.7261C295.648 40.389 296.088 41.1602 296.365 41.995C296.642 42.8298 296.751 43.7115 296.685 44.5888L294.293 76.4712L283.1 108.429C282.931 108.911 282.607 109.325 282.18 109.606C281.753 109.886 281.245 110.018 280.735 109.982C280.524 109.966 280.316 109.921 280.117 109.848Z" fill="#FFB8B8"/>
<path d="M334.995 119.099C335.358 118.43 335.571 117.69 335.618 116.93C335.665 116.17 335.545 115.41 335.267 114.701C334.989 113.993 334.559 113.354 334.008 112.83C333.456 112.307 332.797 111.91 332.077 111.669L331.859 93.167L323.91 98.5547L325.335 115.299C325.011 116.538 325.153 117.854 325.732 118.997C326.312 120.139 327.29 121.029 328.481 121.497C329.671 121.966 330.992 121.98 332.193 121.538C333.393 121.096 334.39 120.228 334.995 119.099Z" fill="#FFB8B8"/>
<path d="M331.62 112.309L325.966 112.591C325.383 112.617 324.811 112.423 324.362 112.048C323.914 111.672 323.623 111.143 323.545 110.563L319.262 77.4419L309.301 50.0559C309 49.2293 308.867 48.3511 308.908 47.4723C308.949 46.5935 309.164 45.7316 309.54 44.9368C309.917 44.142 310.447 43.4302 311.101 42.8427C311.755 42.2551 312.518 41.8036 313.347 41.5144C314.177 41.2252 315.055 41.104 315.932 41.158C316.808 41.212 317.665 41.4399 318.453 41.8287C319.24 42.2175 319.943 42.7592 320.52 43.4225C321.097 44.0858 321.536 44.8574 321.813 45.6923L331.866 76.0367L333.826 109.848C333.856 110.359 333.716 110.865 333.43 111.289C333.143 111.713 332.726 112.031 332.241 112.194C332.04 112.26 331.831 112.299 331.62 112.309Z" fill="#FFB8B8"/>
<path d="M399.484 216.926H202.579C202.442 216.926 202.311 216.872 202.214 216.775C202.117 216.677 202.062 216.546 202.062 216.408C202.062 216.271 202.117 216.139 202.214 216.042C202.311 215.945 202.442 215.891 202.579 215.891H399.484C399.621 215.891 399.752 215.945 399.849 216.042C399.946 216.139 400.001 216.271 400.001 216.408C400.001 216.546 399.946 216.677 399.849 216.775C399.752 216.872 399.621 216.926 399.484 216.926Z" fill="#FFB8B8"/>
<path d="M167.043 105.135C164.075 105.135 161.715 104.251 160.027 102.506C156.212 98.5631 156.451 90.9627 156.643 84.8556C156.699 83.079 156.751 81.4007 156.698 79.995L156.698 79.9738C156.711 77.2272 157.806 74.5969 159.744 72.6542C161.682 70.7116 164.306 69.6135 167.048 69.5986H191.656C194.62 69.5986 196.979 70.4818 198.665 72.224C202.48 76.1639 202.244 83.7624 202.054 89.868C201.999 91.6484 201.946 93.3303 202.001 94.7385C201.991 97.4891 200.898 100.125 198.959 102.072C197.019 104.019 194.391 105.12 191.646 105.135H167.043ZM157.731 79.9664C157.785 81.4058 157.732 83.0975 157.676 84.8883C157.49 90.7999 157.259 98.1573 160.769 101.785C162.275 103.343 164.328 104.1 167.043 104.1H191.644C194.113 104.086 196.477 103.098 198.223 101.349C199.968 99.5993 200.955 97.2306 200.967 94.7569C200.912 93.334 200.965 91.6347 201.021 89.8356C201.205 83.9255 201.433 76.5699 197.923 72.9451C196.418 71.3902 194.368 70.6342 191.656 70.6342H167.049C164.583 70.648 162.221 71.6356 160.477 73.3826C158.733 75.1296 157.746 77.4953 157.731 79.9664Z" fill="#FFB8B8"/>
<path d="M33.64 38.0753C29.325 38.0491 25.1039 36.8104 21.4567 34.5C16.1135 31.1736 12.0791 25.8459 10.9279 20.5969L10.8125 20.0708L12.2564 19.8119C23.6227 17.2985 36.4787 25.3979 39.2328 36.8144L39.3535 37.315L38.8545 37.4387C37.1485 37.8617 35.3975 38.0755 33.64 38.0753ZM12.0624 20.8988C13.3027 25.714 17.0667 30.5476 22.0022 33.6205C26.7742 36.6803 32.5572 37.7336 38.0987 36.5525C35.2172 25.9162 23.1513 18.4524 12.4695 20.8255L12.0624 20.8988Z" fill="#FFB8B8"/>
<path d="M19.3024 96.9188C15.9211 96.9188 13.1741 95.4028 11.5613 92.6374C10.6574 91.0285 10.1822 89.2135 10.1816 87.3672C10.1811 85.5209 10.6551 83.7056 11.558 82.0961C13.1966 79.2834 16.0091 77.7576 19.4827 77.8109H52.271C55.7328 77.7667 58.5474 79.2857 60.187 82.1017C61.09 83.7108 61.5643 85.5257 61.5641 87.3717C61.5639 89.2177 61.0893 91.0325 60.186 92.6414C58.5471 95.4509 55.7333 96.9514 52.2632 96.9175H19.4743C19.4168 96.9183 19.3595 96.9187 19.3024 96.9188ZM19.3216 78.8453C16.3062 78.8453 13.8704 80.1812 12.4507 82.6182C11.6373 84.0682 11.2102 85.7036 11.2108 87.3669C11.2113 89.0302 11.6394 90.6654 12.4538 92.1148C13.8974 94.5905 16.3831 95.9305 19.4665 95.8819H52.271C55.3577 95.9312 57.8511 94.5917 59.2936 92.1188C60.1074 90.6693 60.5349 89.0343 60.535 87.3713C60.5351 85.7082 60.1078 84.0731 59.2942 82.6235C57.8507 80.1443 55.3568 78.8094 52.2783 78.8465H19.4718C19.4217 78.8458 19.3714 78.8453 19.3216 78.8453Z" fill="#FFB8B8"/>
<path d="M175.457 81.9114H165.121C164.436 81.9114 163.779 81.6386 163.294 81.1531C162.809 80.6675 162.537 80.009 162.537 79.3224C162.537 78.6357 162.809 77.9772 163.294 77.4917C163.779 77.0062 164.436 76.7334 165.121 76.7334H175.457C176.143 76.7334 176.8 77.0062 177.285 77.4917C177.769 77.9772 178.041 78.6357 178.041 79.3224C178.041 80.009 177.769 80.6675 177.285 81.1531C176.8 81.6386 176.143 81.9114 175.457 81.9114Z" fill="#512100"/>
<path d="M175.457 90.1965H165.121C164.436 90.1965 163.779 89.9238 163.294 89.4382C162.809 88.9527 162.537 88.2942 162.537 87.6075C162.537 86.9209 162.809 86.2624 163.294 85.7769C163.779 85.2913 164.436 85.0186 165.121 85.0186H175.457C176.143 85.0186 176.8 85.2913 177.285 85.7769C177.769 86.2624 178.041 86.9209 178.041 87.6075C178.041 88.2942 177.769 88.9527 177.285 89.4382C176.8 89.9238 176.143 90.1965 175.457 90.1965Z" fill="#512100"/>
<path d="M175.457 98.4807H165.121C164.436 98.4807 163.779 98.2079 163.294 97.7224C162.809 97.2369 162.537 96.5784 162.537 95.8917C162.537 95.2051 162.809 94.5466 163.294 94.061C163.779 93.5755 164.436 93.3027 165.121 93.3027H175.457C176.143 93.3027 176.8 93.5755 177.285 94.061C177.769 94.5466 178.041 95.2051 178.041 95.8917C178.041 96.5784 177.769 97.2369 177.285 97.7224C176.8 98.2079 176.143 98.4807 175.457 98.4807Z" fill="#512100"/>
<path d="M193.545 81.9114H183.209C182.524 81.9114 181.866 81.6386 181.382 81.1531C180.897 80.6675 180.625 80.009 180.625 79.3224C180.625 78.6357 180.897 77.9772 181.382 77.4917C181.866 77.0062 182.524 76.7334 183.209 76.7334H193.545C194.231 76.7334 194.888 77.0062 195.372 77.4917C195.857 77.9772 196.129 78.6357 196.129 79.3224C196.129 80.009 195.857 80.6675 195.372 81.1531C194.888 81.6386 194.231 81.9114 193.545 81.9114Z" fill="#512100"/>
<path d="M193.545 90.1965H183.209C182.524 90.1965 181.866 89.9238 181.382 89.4382C180.897 88.9527 180.625 88.2942 180.625 87.6075C180.625 86.9209 180.897 86.2624 181.382 85.7769C181.866 85.2913 182.524 85.0186 183.209 85.0186H193.545C194.231 85.0186 194.888 85.2913 195.372 85.7769C195.857 86.2624 196.129 86.9209 196.129 87.6075C196.129 88.2942 195.857 88.9527 195.372 89.4382C194.888 89.9238 194.231 90.1965 193.545 90.1965Z" fill="#512100"/>
<path d="M193.545 98.4807H183.209C182.524 98.4807 181.866 98.2079 181.382 97.7224C180.897 97.2369 180.625 96.5784 180.625 95.8917C180.625 95.2051 180.897 94.5466 181.382 94.061C181.866 93.5755 182.524 93.3027 183.209 93.3027H193.545C194.231 93.3027 194.888 93.5755 195.372 94.061C195.857 94.5466 196.129 95.2051 196.129 95.8917C196.129 96.5784 195.857 97.2369 195.372 97.7224C194.888 98.2079 194.231 98.4807 193.545 98.4807Z" fill="#512100"/>
<path d="M217.061 45.1172H0.621094V46.1528H217.061V45.1172Z" fill="#FFB8B8"/>
<path d="M200.005 131.879H17.0547C12.5331 131.874 8.19813 130.072 5.00085 126.869C1.80358 123.665 0.00510762 119.322 0 114.792V25.7308C0.00510762 21.2006 1.80358 16.8573 5.00085 13.6539C8.19813 10.4506 12.5331 8.64867 17.0547 8.64355H200.005C204.527 8.64867 208.862 10.4506 212.059 13.6539C215.256 16.8573 217.055 21.2006 217.06 25.7308V114.792C217.055 119.322 215.256 123.665 212.059 126.869C208.862 130.072 204.527 131.874 200.005 131.879ZM17.0547 9.67915C12.8071 9.68398 8.73491 11.3767 5.73142 14.3859C2.72792 17.3951 1.03845 21.4751 1.03362 25.7308V114.792C1.03845 119.047 2.72793 123.127 5.73142 126.137C8.73492 129.146 12.8071 130.838 17.0547 130.843H200.005C204.253 130.838 208.325 129.146 211.329 126.137C214.332 123.127 216.022 119.047 216.026 114.792V25.7308C216.022 21.4751 214.332 17.3951 211.329 14.3859C208.325 11.3767 204.253 9.68397 200.005 9.67915H17.0547Z" fill="#FFB8B8"/>
</g>
<defs>
<clipPath id="clip0_249_443">
<rect width="400" height="217" fill="white"/>
</clipPath>
</defs>
</svg>
