<svg width="190" height="171" viewBox="0 0 190 171" fill="none" xmlns="http://www.w3.org/2000/svg">
<g clip-path="url(#clip0_261_382)">
<path d="M1.06431 38.3706C0.692262 38.4759 0.376908 38.7253 0.187431 39.0642C-0.00204531 39.403 -0.0501759 39.8037 0.0535998 40.1782L24.4238 127.73C24.5284 128.104 24.7764 128.422 25.1132 128.612C25.4501 128.803 25.8483 128.851 26.2206 128.747L116.061 103.441C116.433 103.336 116.749 103.086 116.938 102.747C117.128 102.408 117.176 102.008 117.072 101.633L92.702 14.0814C92.5973 13.7071 92.3494 13.3899 92.0125 13.1993C91.6757 13.0087 91.2774 12.9603 90.9051 13.0647L1.06431 38.3706Z" fill="#E6E6E6"/>
<path d="M27.3503 124.613L112.963 100.498L89.7767 17.1992L4.16406 41.3142L27.3503 124.613Z" fill="white"/>
<path d="M15.4819 52.4367C14.9107 52.5976 14.6752 53.5521 14.957 54.5643C15.2387 55.5765 15.9327 56.2691 16.5039 56.1083L55.5505 45.1098C56.1217 44.9489 56.3572 43.9944 56.0755 42.9822C55.7937 41.97 55.0998 41.2774 54.5286 41.4382L15.4819 52.4367Z" fill="#E6E6E6"/>
<path d="M18.6264 63.7336C18.0552 63.8945 17.8197 64.849 18.1015 65.8612C18.3832 66.8734 19.0772 67.566 19.6484 67.4051L58.6951 56.4066C59.2663 56.2458 59.5018 55.2913 59.22 54.2791C58.9383 53.2669 58.2443 52.5742 57.6731 52.7351L18.6264 63.7336Z" fill="#E6E6E6"/>
<path d="M21.7358 74.9006C21.1646 75.0615 20.9291 76.0159 21.2109 77.0282C21.4926 78.0404 22.1866 78.733 22.7578 78.5721L61.8044 67.5736C62.3756 67.4127 62.6111 66.4583 62.3294 65.4461C62.0476 64.4339 61.3537 63.7412 60.7825 63.9021L21.7358 74.9006Z" fill="#E6E6E6"/>
<path d="M24.8803 86.1975C24.3091 86.3584 24.0736 87.3128 24.3554 88.325C24.6371 89.3372 25.3311 90.0299 25.9023 89.869L64.949 78.8705C65.5202 78.7096 65.7557 77.7552 65.4739 76.743C65.1922 75.7307 64.4982 75.0381 63.927 75.199L24.8803 86.1975Z" fill="#E6E6E6"/>
<path d="M74.3452 35.9871C74.1053 36.0543 73.8809 36.1685 73.6849 36.3231C73.4889 36.4777 73.3251 36.6696 73.2029 36.8879C73.0807 37.1062 73.0024 37.3465 72.9726 37.5953C72.9428 37.844 72.962 38.0962 73.0292 38.3375C73.0963 38.5787 73.2101 38.8043 73.364 39.0013C73.5178 39.1983 73.7088 39.3628 73.9259 39.4855C74.1431 39.6082 74.3821 39.6866 74.6294 39.7163C74.8767 39.746 75.1274 39.7264 75.3671 39.6586L82.6667 37.6025C83.1507 37.4662 83.5611 37.142 83.8075 36.7013C84.0539 36.2607 84.1162 35.7396 83.9806 35.2527C83.8451 34.7658 83.5229 34.353 83.0848 34.1052C82.6468 33.8573 82.1287 33.7946 81.6448 33.931L74.3452 35.9871Z" fill="#E6E6E6"/>
<path d="M77.4292 47.0652C77.1893 47.1325 76.9649 47.2467 76.7689 47.4012C76.5729 47.5558 76.4091 47.7477 76.2869 47.966C76.1646 48.1843 76.0864 48.4247 76.0566 48.6734C76.0268 48.9221 76.046 49.1743 76.1132 49.4156C76.1803 49.6568 76.2941 49.8824 76.448 50.0794C76.6018 50.2764 76.7928 50.4409 77.0099 50.5636C77.2271 50.6863 77.4661 50.7648 77.7134 50.7945C77.9607 50.8242 78.2114 50.8045 78.4511 50.7367L85.7507 48.6806C86.2347 48.5443 86.645 48.2201 86.8914 47.7795C87.1378 47.3388 87.2001 46.8177 87.0646 46.3308C86.9291 45.8439 86.6069 45.4312 86.1688 45.1833C85.7307 44.9354 85.2127 44.8728 84.7287 45.0091L77.4292 47.0652Z" fill="#E6E6E6"/>
<path d="M80.513 58.1424C80.2734 58.2099 80.0493 58.3242 79.8535 58.4788C79.6578 58.6334 79.4943 58.8253 79.3723 59.0435C79.2503 59.2617 79.1722 59.5019 79.1425 59.7505C79.1127 59.9991 79.132 60.2511 79.1991 60.4921C79.2662 60.7332 79.3798 60.9586 79.5336 61.1555C79.6873 61.3524 79.878 61.5169 80.0949 61.6397C80.3118 61.7624 80.5506 61.841 80.7977 61.8708C81.0448 61.9007 81.2953 61.8814 81.535 61.8139L88.8345 59.7578C89.3185 59.6214 89.7289 59.2973 89.9753 58.8566C90.2217 58.4159 90.284 57.8948 90.1485 57.408C90.0129 56.9211 89.6907 56.5083 89.2526 56.2604C88.8146 56.0126 88.2966 55.9499 87.8126 56.0862L80.513 58.1424Z" fill="#E6E6E6"/>
<path d="M83.5968 69.2209C83.1134 69.3577 82.7037 69.6819 82.4577 70.1224C82.2117 70.5629 82.1496 71.0836 82.285 71.5701C82.4205 72.0566 82.7423 72.4691 83.1799 72.717C83.6175 72.965 84.135 73.028 84.6188 72.8924L91.9184 70.8363C92.4019 70.6995 92.8116 70.3752 93.0576 69.9348C93.3035 69.4943 93.3656 68.9736 93.2302 68.4871C93.0948 68.0006 92.7729 67.588 92.3353 67.3401C91.8977 67.0922 91.3802 67.0291 90.8964 67.1647L83.5968 69.2209Z" fill="#E6E6E6"/>
<path d="M86.5417 88.4228C86.236 88.5085 85.9501 88.654 85.7004 88.851C85.4506 89.0479 85.2419 89.2924 85.0862 89.5706C84.9304 89.8487 84.8307 90.155 84.7927 90.472C84.7548 90.7889 84.7793 91.1103 84.8648 91.4177C84.9504 91.7251 85.0954 92.0125 85.2914 92.2635C85.4875 92.5145 85.7308 92.7242 86.0075 92.8805C86.2842 93.0369 86.5888 93.1368 86.9039 93.1747C87.219 93.2125 87.5384 93.1875 87.8439 93.1011L97.1451 90.4812C97.7618 90.3075 98.2847 89.8944 98.5986 89.3329C98.9126 88.7714 98.992 88.1074 98.8193 87.487C98.6466 86.8667 98.236 86.3407 97.6778 86.0248C97.1196 85.709 96.4596 85.6292 95.8429 85.8029L86.5417 88.4228Z" fill="#FFB7B7"/>
<path d="M96.1148 78.9743L27.2871 98.3613L27.4584 98.9768L96.2861 79.5897L96.1148 78.9743Z" fill="#E6E6E6"/>
<path d="M165.251 161.719L159.731 163.062L151.957 142.282L160.104 140.301L165.251 161.719Z" fill="#A0616A"/>
<path d="M150.208 171L150.171 170.845C149.733 169.015 150.035 167.086 151.01 165.48C151.984 163.874 153.553 162.723 155.37 162.279L166.17 159.652L167.865 166.706L150.208 171Z" fill="#2F2E41"/>
<path d="M140.814 165.503L135.135 165.502L132.434 143.467L140.815 143.467L140.814 165.503Z" fill="#A0616A"/>
<path d="M142.19 170.967L124.023 170.966V170.807C124.023 168.924 124.767 167.119 126.09 165.788C127.413 164.458 129.207 163.71 131.078 163.71H131.079L142.19 163.71L142.19 170.967Z" fill="#2F2E41"/>
<path d="M132.428 156.9L126.914 90.7929L149.74 86.5603L149.83 86.5439L156.512 90.8643L154.186 115.194L164.893 153.125L155.648 155.572L144.924 120.393L142.47 109.695L141.212 123.596L142.146 157.878L132.428 156.9Z" fill="#2F2E41"/>
<path d="M126.207 92.2915L126.146 92.2146L134.034 32.4709L134.045 32.3926L134.1 32.3366C134.216 32.2197 136.98 29.4725 139.823 29.4725C140.234 29.4725 140.624 29.462 140.999 29.4524C143.174 29.3956 144.893 29.3501 146.935 31.4047C149.015 33.4975 155.804 41.1399 155.804 51.6068C155.804 61.738 156.721 93.2221 156.73 93.5389L156.743 93.9834L156.373 93.7409C156.281 93.6817 147.151 87.8332 139.493 93.2699C137.1 94.9691 134.95 95.5648 133.112 95.5648C128.834 95.5648 126.243 92.3384 126.207 92.2915Z" fill="#FFB7B7"/>
<path d="M144.073 24.5436C149.587 21.5117 151.613 14.5576 148.599 9.01128C145.585 3.46492 138.672 1.42656 133.159 4.45847C127.645 7.49039 125.619 14.4445 128.633 19.9908C131.647 25.5372 138.56 27.5755 144.073 24.5436Z" fill="#A0616A"/>
<path d="M121.199 105.131C121.737 104.712 122.178 104.178 122.489 103.569C122.8 102.96 122.975 102.289 123.001 101.605C123.026 100.92 122.903 100.238 122.638 99.607C122.374 98.9758 121.975 98.4106 121.469 97.9512L127.931 82.6201L119.471 84.1864L114.632 98.505C113.921 99.4098 113.565 100.546 113.631 101.697C113.697 102.849 114.18 103.936 114.99 104.752C115.799 105.569 116.878 106.059 118.023 106.129C119.167 106.199 120.297 105.844 121.199 105.131Z" fill="#A0616A"/>
<path d="M114.957 93.2061L117.038 88.7875C116.909 88.7096 116.803 88.5991 116.73 88.4671C114.786 85.0782 126.528 56.9356 127.311 55.0689C127.191 54.0537 125.959 43.295 126.86 39.6686C127.921 35.3996 130.099 33.4101 134.144 33.016C138.604 32.5946 139.808 38.6879 139.819 38.7498L139.823 54.4146L134.704 72.4465L123.03 96.4048L114.957 93.2061Z" fill="#FFB7B7"/>
<path d="M140.07 18.8127C138.707 18.9912 137.678 17.5874 137.201 16.2898C136.724 14.9922 136.36 13.4815 135.174 12.7806C133.554 11.823 131.481 12.9747 129.629 12.6588C127.537 12.302 126.176 10.0715 126.07 7.93954C125.963 5.80759 126.806 3.75713 127.634 1.7915L127.923 4.23433C127.884 3.40639 128.057 2.58233 128.426 1.84096C128.794 1.0996 129.346 0.465737 130.027 0L129.655 3.58448C129.888 1.57637 132.039 0.0203466 134.006 0.436491L133.947 2.57225C136.364 2.28321 138.801 1.99375 141.225 2.21396C143.648 2.43417 146.089 3.20555 147.926 4.81117C150.673 7.21293 151.677 11.1677 151.34 14.8137C151.003 18.4598 149.507 21.885 147.948 25.1937C147.555 26.0262 147.013 26.9656 146.103 27.0716C145.285 27.1669 144.537 26.4795 144.283 25.6922C144.029 24.9049 144.153 24.0495 144.305 23.236C144.535 22.007 144.825 20.7509 144.609 19.5194C144.393 18.288 143.512 17.071 142.278 16.9201C141.044 16.7692 139.781 18.1882 140.375 19.2871L140.07 18.8127Z" fill="#2F2E41"/>
<path d="M189.879 170.993H108.004V170.32H190L189.879 170.993Z" fill="#3F3D56"/>
</g>
<defs>
<clipPath id="clip0_261_382">
<rect width="190" height="171" fill="white"/>
</clipPath>
</defs>
</svg>
