<svg width="230" height="201" viewBox="0 0 230 201" fill="none" xmlns="http://www.w3.org/2000/svg">
<g clip-path="url(#clip0_249_478)">
<path d="M38.1488 69.9716C37.6107 70.026 37.0692 70.0386 36.5292 70.0095C36.4371 69.9994 36.3448 70.0259 36.272 70.0834C36.1993 70.1409 36.152 70.2247 36.1403 70.3167L35.1072 78.0825C35.0277 78.6463 34.7974 79.1779 34.4407 79.621C34.1466 79.9736 33.928 80.3831 33.7984 80.8239C33.6689 81.2647 33.6311 81.7276 33.6875 82.1836V95.3753C33.6875 95.3753 33.6209 97.1341 34.9695 97.1341C36.5835 97.3374 38.2166 97.3374 39.8307 97.1341C39.8307 97.1341 40.9105 96.9293 40.9105 95.3062V82.3172C40.9928 81.864 40.9759 81.3983 40.8608 80.9524C40.7457 80.5064 40.5352 80.0909 40.2439 79.7345C39.8992 79.2898 39.6763 78.7626 39.5974 78.205L38.5243 70.2767C38.5121 70.1875 38.4665 70.1064 38.3968 70.0497C38.327 69.9931 38.2384 69.9651 38.1488 69.9716Z" fill="white"/>
<path d="M37.3943 97.5088C36.5786 97.5088 35.7636 97.458 34.9541 97.3567C34.7733 97.361 34.5935 97.3277 34.426 97.2591C34.2586 97.1904 34.1072 97.0878 33.9812 96.9576C33.4324 96.3864 33.4629 95.4081 33.4645 95.3667L33.4643 82.1972C33.4071 81.7129 33.4489 81.2221 33.5873 80.7546C33.7257 80.2872 33.9577 79.8529 34.2692 79.4783C34.5994 79.0671 34.8126 78.5741 34.8862 78.0514L35.9191 70.2873C35.9392 70.1379 36.0166 70.0023 36.1348 69.9091C36.253 69.816 36.4027 69.7726 36.5523 69.7881C37.0769 69.8159 37.6029 69.8032 38.1256 69.7501L38.1318 69.7496C38.2776 69.739 38.4221 69.7844 38.5357 69.8767C38.6493 69.969 38.7236 70.1012 38.7434 70.2464L39.8166 78.1751C39.8903 78.6937 40.0977 79.1841 40.4183 79.5978C40.7271 79.976 40.9507 80.4165 41.0738 80.8892C41.1969 81.362 41.2167 81.8559 41.1316 82.337V95.3062C41.1316 97.093 39.8836 97.3505 39.871 97.3529C39.0495 97.4566 38.2223 97.5087 37.3943 97.5088ZM36.4979 70.2308C36.4649 70.2292 36.4324 70.24 36.4069 70.2611C36.3814 70.2821 36.3645 70.312 36.3597 70.3448L35.3264 78.112C35.2414 78.7161 34.9948 79.2859 34.6126 79.7608C34.3379 80.0906 34.1335 80.4732 34.0122 80.8852C33.8908 81.2972 33.855 81.7298 33.907 82.1562L33.9087 82.1836V95.3752C33.9083 95.3916 33.8847 96.2165 34.3023 96.6498C34.3887 96.738 34.4927 96.8068 34.6075 96.8519C34.7223 96.897 34.8453 96.9173 34.9685 96.9115L34.9962 96.9133C36.5919 97.1139 38.2063 97.1139 39.8019 96.9133C39.823 96.908 40.6873 96.7105 40.6873 95.3062L40.6909 82.2773C40.7678 81.8559 40.7522 81.4227 40.6451 81.008C40.5381 80.5932 40.3422 80.2068 40.071 79.8756C39.7009 79.3991 39.4615 78.834 39.3765 78.2362L38.3031 70.3065C38.2984 70.274 38.2818 70.2444 38.2564 70.2235C38.2311 70.2026 38.1989 70.1919 38.1662 70.1935C37.618 70.2485 37.0664 70.2613 36.5162 70.2318C36.5102 70.2312 36.5041 70.2308 36.4979 70.2308Z" fill="#FFB6B6"/>
<path d="M36.5175 82.4199H38.155C38.8061 82.4199 39.4305 82.6791 39.8909 83.1405C40.3514 83.6019 40.61 84.2276 40.61 84.8801V91.054C40.61 91.7065 40.3514 92.3323 39.8909 92.7937C39.4305 93.255 38.8061 93.5142 38.155 93.5142H36.5175C35.8664 93.5142 35.242 93.255 34.7816 92.7937C34.3212 92.3323 34.0625 91.7065 34.0625 91.054V84.8801C34.0625 84.5571 34.126 84.2371 34.2494 83.9387C34.3728 83.6402 34.5536 83.369 34.7816 83.1405C35.0095 82.9121 35.2802 82.7308 35.578 82.6072C35.8759 82.4836 36.1951 82.4199 36.5175 82.4199Z" fill="#512100"/>
<path d="M6.415 195.814H11.7534L14.2931 175.18L6.41406 175.18L6.415 195.814Z" fill="#9F616A"/>
<path d="M5.05273 194.068L15.566 194.067H15.5664C17.3433 194.067 19.0474 194.775 20.3038 196.034C21.5603 197.293 22.2662 199.001 22.2663 200.781V200.999L5.05305 201L5.05273 194.068Z" fill="#010B13"/>
<path d="M3.05767 122.113C3.05767 122.113 0.744037 124.734 4.57505 134.95L3.90025 190.968L16.3154 190.725L19.0444 163.4L24.013 123.525L3.05767 122.113Z" fill="#010B13"/>
<path d="M28.2715 129.858L28.1356 129.837C12.2532 127.41 0.268094 125.083 0.148885 125.06L0 125.031L4.16345 114.883C4.13055 113.823 3.22932 84.0455 4.95458 75.4903C6.62474 67.2083 14.4973 65.8511 15.3945 65.7234L16.2953 62.7324L27.6758 68.6668L29.6606 75.5123L30.0638 94.2743L28.2715 129.858Z" fill="#FFB6B6"/>
<path d="M35.1256 91.2412C34.6131 91.2411 34.1061 91.3473 33.6366 91.5531C33.167 91.7588 32.745 92.0598 32.3972 92.4369H13.2685L6.26172 93.9315L7.41212 102.823L32.3371 97.4515C32.7498 97.9185 33.2726 98.2745 33.8579 98.4869C34.4432 98.6994 35.0722 98.7615 35.6876 98.6677C36.303 98.5739 36.8852 98.3271 37.3809 97.9499C37.8767 97.5726 38.2702 97.0769 38.5256 96.5081C38.7811 95.9392 38.8902 95.3153 38.8432 94.6933C38.7961 94.0713 38.5943 93.471 38.2561 92.9472C37.918 92.4235 37.4544 91.993 36.9075 91.6949C36.3607 91.3969 35.7481 91.2409 35.1256 91.2412Z" fill="#9F616A"/>
<path d="M35.2919 59.3706C37.7341 54.8936 36.0922 49.2803 31.6246 46.833C27.1571 44.3856 21.5556 46.031 19.1134 50.508C16.6712 54.9849 18.3131 60.5982 22.7807 63.0456C27.2482 65.4929 32.8497 63.8475 35.2919 59.3706Z" fill="#9F616A"/>
<path d="M18.5323 47.5538L18.0854 46.6523L20.3342 45.5326C20.3342 45.5326 22.8151 41.4875 27.3043 42.6243C31.7934 43.7611 33.8132 44.4414 33.8132 44.4414L36.0564 45.5725L34.9305 46.695L36.9502 47.3753L35.6009 48.0471L37.1709 48.9514L36.3257 53.587C36.3257 53.587 34.922 50.0711 32.2234 51.4147C29.5248 52.7583 24.5887 50.7201 24.5887 50.7201L20.3002 59.0371C20.3002 59.0371 19.4155 56.1216 17.8381 56.899C17.8381 56.899 13.8083 50.4678 18.5323 47.5538Z" fill="#010B13"/>
<path d="M7.53504 104.49L5.3475 97.9693L4.81836 76.233L5.75042 73.149C6.08591 72.039 6.64156 71.0083 7.38408 70.1186C8.1266 69.229 9.0407 68.4988 10.0716 67.9716C11.1025 67.4445 12.229 67.1314 13.3836 67.051C14.5381 66.9706 15.697 67.1246 16.7907 67.5038C17.8845 67.883 18.8906 68.4796 19.7487 69.2578C20.6069 70.036 21.2994 70.9798 21.7848 72.0326C22.2703 73.0855 22.5386 74.2257 22.5738 75.3849C22.6089 76.5442 22.4102 77.6986 21.9894 78.779L16.9936 91.6078L17.2476 92.1017L28.071 92.0139L31.9156 98.9488L7.53504 104.49Z" fill="#FFB6B6"/>
<path d="M115.824 101.811C116.228 101.538 116.567 101.18 116.818 100.762C117.069 100.343 117.226 99.8752 117.276 99.3898C117.327 98.9044 117.271 98.4138 117.112 97.9525C116.953 97.4912 116.695 97.0704 116.356 96.7198L121.691 86.1299L115.581 86.8402L111.451 96.7877C110.901 97.397 110.593 98.1874 110.586 99.009C110.579 99.8306 110.872 100.626 111.411 101.246C111.95 101.865 112.697 102.264 113.511 102.368C114.324 102.473 115.147 102.274 115.824 101.811Z" fill="#FFB7B7"/>
<path d="M158.611 176.825L153.803 176.825L151.516 158.24L158.612 158.241L158.611 176.825Z" fill="#FFB7B7"/>
<path d="M159.837 181.495L144.334 181.494V181.298C144.334 179.694 144.97 178.156 146.101 177.022C147.233 175.888 148.768 175.251 150.368 175.251H150.369L159.837 175.251L159.837 181.495Z" fill="#010B13"/>
<path d="M132.336 176.825L127.528 176.825L125.24 158.24L132.337 158.241L132.336 176.825Z" fill="#FFB7B7"/>
<path d="M132.384 181.495L116.881 181.494V181.298C116.881 179.694 117.517 178.156 118.648 177.022C119.78 175.888 121.315 175.251 122.915 175.251H122.916L132.384 175.251L132.384 181.495Z" fill="#010B13"/>
<path d="M131.942 98.333L127.236 109.198L123.354 171.646L133.158 171.253L135.836 141.484L144.096 114.969L148.845 144.529L150.806 170.467L158.919 170.819L162.152 98.333H131.942Z" fill="#010B13"/>
<path d="M155.465 44.7207L141.825 45.0626L133.817 49.1823L133.377 79.5763L128.383 100.561C128.383 100.561 159.589 102.713 163.903 99.5691L158.805 75.5958L165.643 49.6875L155.465 44.7207Z" fill="#512100"/>
<path d="M135.923 49.6865L134.653 48.8271C134.653 48.8271 129.393 50.4071 127.838 57.4364C127.838 57.4364 126.648 60.9631 126.126 63.3877C125.527 66.1688 112.305 91.7141 112.305 91.7141L120.221 93.9899L134.735 70.4691L135.923 49.6865Z" fill="#512100"/>
<path d="M165.43 105.709C165.117 105.335 164.889 104.897 164.763 104.426C164.637 103.954 164.616 103.461 164.701 102.981C164.785 102.5 164.974 102.044 165.254 101.644C165.534 101.245 165.897 100.912 166.32 100.668L164.105 89.0146L169.784 91.386L171.016 102.089C171.377 102.827 171.455 103.671 171.236 104.463C171.017 105.255 170.516 105.939 169.827 106.385C169.139 106.831 168.311 107.009 167.501 106.884C166.69 106.76 165.953 106.341 165.43 105.709Z" fill="#FFB7B7"/>
<path d="M163.592 50.0503L165.049 49.5752C165.049 49.5752 169.67 52.5476 169.231 59.734C169.231 59.734 169.404 63.4527 169.238 65.9276C169.049 68.7663 171.592 96.975 171.592 96.975H163.356L159.826 71.4297L163.592 50.0503Z" fill="#512100"/>
<path d="M158.813 31.9695C158.813 33.8436 158.259 35.6755 157.22 37.2337C156.181 38.792 154.704 40.0064 152.976 40.7236C151.248 41.4408 149.347 41.6284 147.513 41.2628C145.679 40.8972 143.994 39.9948 142.672 38.6696C141.349 37.3445 140.449 35.6561 140.084 33.8181C139.719 31.98 139.906 30.0749 140.622 28.3435C141.338 26.6121 142.55 25.1322 144.105 24.0911C145.66 23.0499 147.488 22.4942 149.358 22.4942C151.859 22.4879 154.261 23.4777 156.034 25.2458C157.807 27.014 158.807 29.4156 158.813 31.9223C158.813 31.938 158.813 31.9538 158.813 31.9695Z" fill="#FFB7B7"/>
<path d="M139.935 19.2425C141.043 16.8556 143.186 17.3275 145.061 18.1366C147.435 17.6089 149.693 16.0291 152.251 16.9634C154.77 20.6357 163.229 19.5552 161.43 25.5337C161.427 26.9663 164.12 26.1325 163.65 28.4787C165.076 32.994 158.502 41.5453 154.727 39.7445C155.661 38.0302 157.793 34.1365 154.559 33.7503C147.602 40.2371 153.841 21.398 145.1 26.8767C142.206 29.531 138.243 21.8974 139.935 19.2425Z" fill="#010B13"/>
<path d="M167.084 106.654C167.534 106.744 167.999 106.735 168.445 106.626C168.892 106.518 169.309 106.312 169.668 106.024C170.026 105.737 170.317 105.374 170.521 104.961C170.724 104.548 170.835 104.096 170.845 103.635L194.587 81.242L189.245 76.9717L167.547 100.383C166.774 100.417 166.041 100.735 165.486 101.274C164.931 101.814 164.593 102.539 164.536 103.312C164.479 104.085 164.707 104.852 165.176 105.468C165.646 106.084 166.325 106.506 167.084 106.654Z" fill="#9F616A"/>
<path d="M191.224 84.8611L186.605 79.4366C186.473 79.2823 186.377 79.1014 186.321 78.9062C186.266 78.7111 186.253 78.5062 186.284 78.3057C186.315 78.1051 186.388 77.9136 186.5 77.7441C186.611 77.5746 186.757 77.4312 186.929 77.3235L192.942 73.5512C193.734 72.8817 194.758 72.5542 195.791 72.6405C196.823 72.7269 197.779 73.2199 198.449 74.0116C199.12 74.8033 199.449 75.8291 199.366 76.8639C199.282 77.8987 198.793 78.8581 198.004 79.5317L193.357 84.8728C193.224 85.0257 193.06 85.1481 192.875 85.2315C192.69 85.315 192.49 85.3576 192.288 85.3565C192.085 85.3554 191.885 85.3106 191.702 85.2251C191.518 85.1396 191.355 85.0154 191.224 84.8611Z" fill="#CBCBCB"/>
<path d="M178.803 195.361L172.998 195.361L170.236 172.924L178.804 172.924L178.803 195.361Z" fill="#9F616A"/>
<path d="M180.284 201L161.566 201V200.762C161.567 198.826 162.334 196.969 163.7 195.6C165.067 194.231 166.92 193.462 168.852 193.462H168.852L180.284 193.462L180.284 201Z" fill="#010B13"/>
<path d="M225.203 195.361L219.398 195.361L216.637 172.924L225.204 172.924L225.203 195.361Z" fill="#9F616A"/>
<path d="M226.684 201L207.967 201V200.762C207.967 198.826 208.735 196.969 210.101 195.6C211.467 194.231 213.32 193.462 215.252 193.462H215.253L226.684 193.462L226.684 201Z" fill="#010B13"/>
<path d="M209.59 96.755L215.441 75.0912L207.85 70.8154H197.255L193.134 75.2337C193.134 75.2337 186.248 80.0342 187.915 85.353L190.603 97.4676L186.492 116.709L165.775 145.499L160.871 173.778L180.175 178.849L201.05 137.66L211.171 183.268L230 182.319L223.512 127.019C223.512 127.019 221.662 110.173 211.968 99.6542L209.59 96.755Z" fill="#010B13"/>
<path d="M221.674 115.923C222 115.599 222.251 115.208 222.41 114.776C222.569 114.344 222.632 113.882 222.593 113.424C222.555 112.965 222.417 112.52 222.188 112.121C221.96 111.721 221.647 111.377 221.271 111.112L216.731 80.4189L210.215 82.4809L216.738 112.042C216.335 112.703 216.189 113.49 216.327 114.253C216.465 115.015 216.877 115.701 217.485 116.179C218.094 116.658 218.856 116.896 219.628 116.849C220.4 116.802 221.128 116.473 221.674 115.923Z" fill="#9F616A"/>
<path d="M217.852 85.2351L210.783 86.0519C210.582 86.0752 210.378 86.0547 210.186 85.9919C209.993 85.9291 209.816 85.8255 209.668 85.6881C209.519 85.5506 209.401 85.3827 209.323 85.1956C209.244 85.0085 209.207 84.8067 209.214 84.6039L209.443 77.4983C209.33 76.4664 209.63 75.4319 210.277 74.6214C210.925 73.811 211.866 73.2908 212.895 73.1749C213.925 73.059 214.958 73.3569 215.769 74.0033C216.579 74.6496 217.101 75.5916 217.219 76.6229L219.052 83.4671C219.104 83.6631 219.114 83.8681 219.08 84.0682C219.046 84.2682 218.97 84.4586 218.856 84.6264C218.742 84.7942 218.594 84.9354 218.42 85.0405C218.247 85.1455 218.053 85.2119 217.852 85.2351Z" fill="#CBCBCB"/>
<path d="M190.703 64.6551V55.5272C190.703 52.2833 191.989 49.1722 194.278 46.8784C196.567 44.5846 199.672 43.2959 202.909 43.2959C206.146 43.2959 209.25 44.5846 211.539 46.8784C213.828 49.1722 215.114 52.2833 215.114 55.5272V64.6551C215.114 65.0907 214.941 65.5083 214.634 65.8163C214.326 66.1244 213.91 66.2976 213.475 66.2981H192.343C191.908 66.2976 191.491 66.1244 191.184 65.8163C190.877 65.5083 190.704 65.0907 190.703 64.6551Z" fill="#010B13"/>
<path d="M204.693 64.9867C209.029 62.6111 210.623 57.1624 208.252 52.8166C205.882 48.4709 200.445 46.8738 196.108 49.2494C191.771 51.625 190.178 57.0737 192.548 61.4194C194.919 65.7652 200.356 67.3623 204.693 64.9867Z" fill="#9F616A"/>
<path d="M187.816 56.2575C187.819 53.6923 188.837 51.233 190.648 49.4191C192.458 47.6052 194.912 46.5849 197.472 46.582H199.293C201.853 46.5849 204.307 47.6052 206.117 49.4191C207.928 51.233 208.946 53.6923 208.949 56.2576V56.4401H205.099L203.786 52.7555L203.523 56.4401H201.533L200.871 54.581L200.738 56.4401H187.816V56.2575Z" fill="#010B13"/>
<path d="M199.521 67.3247C199.34 67.0794 199.232 66.788 199.21 66.4839C199.187 66.1799 199.25 65.8756 199.393 65.6061C201.323 61.9264 204.026 55.1272 200.438 50.9341L200.18 50.6328H210.596V66.3035L201.134 67.9765C201.038 67.9934 200.941 68.002 200.844 68.0021C200.586 68.0021 200.331 67.9407 200.101 67.8229C199.871 67.7052 199.672 67.5344 199.521 67.3247Z" fill="#010B13"/>
<path d="M103.787 75.6684C103.654 75.8045 103.533 75.9508 103.424 76.106L86.4533 75.6899L84.4735 72.0645L78.623 74.3435L81.5055 81.103C81.7384 81.649 82.1418 82.1047 82.655 82.4015C83.1683 82.6983 83.7638 82.8202 84.3521 82.749L103.526 80.4278C103.978 81.0016 104.594 81.4239 105.292 81.6383C105.989 81.8528 106.736 81.8494 107.431 81.6285C108.127 81.4076 108.739 80.9797 109.186 80.4017C109.633 79.8238 109.894 79.1232 109.934 78.3931C109.974 77.6629 109.791 76.9379 109.41 76.3145C109.028 75.691 108.467 75.1987 107.799 74.9029C107.132 74.6071 106.391 74.5219 105.674 74.6587C104.957 74.7954 104.299 75.1476 103.787 75.6684Z" fill="#FFB7B7"/>
<path d="M48.4638 178.952H54.044L56.6986 157.383L48.4629 157.383L48.4638 178.952Z" fill="#FFB7B7"/>
<path d="M47.0391 177.126L58.0284 177.126H58.0289C59.8862 177.126 61.6674 177.865 62.9808 179.182C64.2941 180.498 65.032 182.283 65.0321 184.144V184.372L47.0394 184.373L47.0391 177.126Z" fill="#010B13"/>
<path d="M99.1335 178.828L104.265 176.631L98.251 155.751L90.6777 158.993L99.1335 178.828Z" fill="#FFB7B7"/>
<path d="M97.1074 177.709L107.213 173.383L107.214 173.382C108.922 172.651 110.85 172.63 112.573 173.323C114.297 174.017 115.675 175.368 116.405 177.079L116.494 177.289L99.9482 184.373L97.1074 177.709Z" fill="#010B13"/>
<path d="M75.5868 80.341L75.9902 86.8937L64.1954 88.1587L51.8535 89.4822L55.486 79.5322L75.5868 80.341Z" fill="#FFB7B7"/>
<path d="M76.0008 82.6927C75.8671 82.6401 62.5447 77.4469 54.3616 81.6932L54.1603 81.7977L52.5279 73.7455L51.5977 56.4336L57.6506 53.5674L59.3171 49.8265L70.6687 49.1533L73.0014 52.3591L80.9436 54.9675L76.1968 82.7704L76.0008 82.6927Z" fill="#E4E4E4"/>
<path d="M76.418 67.0659L77.822 56.0103L81.0191 55.0352L81.073 55.0551C81.1468 55.0822 82.8843 55.7487 83.3599 58.1592C83.8165 60.473 87.2547 74.8714 87.2894 75.0166L87.3238 75.1606L79.2454 78.3996L76.418 67.0659Z" fill="#E4E4E4"/>
<path d="M94.9765 175.037L105.73 172.826L88.5426 125.3L82.6603 109.09C82.6603 109.09 78.9294 96.0922 77.2438 91.0624L76.2265 84.3135L52.1457 86.9845C52.1457 86.9845 45.42 96.8827 47.4632 113.016L46.5391 173.655L57.2927 174.208L66.3001 113.05L82.1088 146.576C82.1088 146.576 87.0916 160.883 90.6566 163.984L94.9765 175.037Z" fill="#010B13"/>
<path d="M61.8025 89.2347C61.6131 89.2302 61.4237 89.2407 61.236 89.266L50.0018 76.5121L51.3086 72.5923L45.6631 69.8428L42.6767 76.5567C42.4354 77.0991 42.3762 77.7053 42.508 78.2843C42.6398 78.8633 42.9555 79.3838 43.4076 79.7677L58.1427 92.2793C58.0303 93.0018 58.1401 93.7415 58.4575 94.3999C58.7748 95.0583 59.2847 95.6043 59.9193 95.9653C60.5538 96.3262 61.283 96.485 62.0099 96.4206C62.7367 96.3561 63.4267 96.0714 63.9881 95.6043C64.5496 95.1373 64.9558 94.51 65.1528 93.806C65.3498 93.1019 65.3282 92.3544 65.091 91.6629C64.8537 90.9715 64.412 90.3688 63.8245 89.935C63.2371 89.5013 62.5318 89.257 61.8025 89.2347Z" fill="#FFB7B7"/>
<path d="M44.6465 71.7325L49.0384 59.1963C49.532 57.7185 50.1505 56.8208 50.8768 56.5278C51.0198 56.4633 51.1747 56.4293 51.3316 56.4278C51.4885 56.4263 51.6439 56.4575 51.7882 56.5193L53.7575 59.0126L55.5853 66.7071L50.899 77.7536L44.6465 71.7325Z" fill="#E4E4E4"/>
<path d="M73.7158 46.5589H54.4353C54.0387 46.5585 53.6585 46.4004 53.3781 46.1194C53.0976 45.8383 52.9399 45.4573 52.9395 45.0599V36.7318C52.9395 33.7721 54.1127 30.9336 56.2011 28.8408C58.2896 26.748 61.1221 25.5723 64.0756 25.5723C67.0291 25.5723 69.8616 26.748 71.95 28.8408C74.0384 30.9336 75.2117 33.7721 75.2117 36.7318V45.0599C75.2112 45.4573 75.0535 45.8383 74.7731 46.1194C74.4926 46.4004 74.1124 46.5585 73.7158 46.5589Z" fill="#010B13"/>
<path d="M66.3638 46.3646C70.873 46.3646 74.5284 42.7015 74.5284 38.1828C74.5284 33.6641 70.873 30.001 66.3638 30.001C61.8546 30.001 58.1992 33.6641 58.1992 38.1828C58.1992 42.7015 61.8546 46.3646 66.3638 46.3646Z" fill="#FFB7B7"/>
<path d="M77.8469 37.5646H66.0573L65.9364 35.8684L65.3319 37.5646H63.5166L63.277 34.2028L62.079 37.5646H58.5664V37.398C58.569 35.0576 59.498 32.8138 61.1494 31.1588C62.8009 29.5039 65.04 28.573 67.3755 28.5703H69.0377C71.3732 28.573 73.6123 29.5039 75.2638 31.1588C76.9153 32.8138 77.8442 35.0576 77.8468 37.398L77.8469 37.5646Z" fill="#010B13"/>
<path d="M65.962 48.113C65.8732 48.1129 65.7847 48.105 65.6973 48.0895L57.0645 46.5632V32.2656H66.5675L66.3322 32.5405C63.0588 36.3662 65.525 42.5696 67.2863 45.9269C67.4162 46.1727 67.4741 46.4504 67.4533 46.7278C67.4326 47.0052 67.3341 47.2711 67.1692 47.4949C67.0311 47.6862 66.8497 47.842 66.6398 47.9495C66.43 48.0569 66.1977 48.113 65.962 48.113Z" fill="#010B13"/>
<path d="M169.371 82.4804C168.833 82.5347 168.292 82.5474 167.752 82.5183C167.66 82.5082 167.567 82.5347 167.495 82.5922C167.422 82.6497 167.375 82.7334 167.363 82.8255L166.33 90.5913C166.25 91.155 166.02 91.6867 165.663 92.1298C165.369 92.4824 165.151 92.8919 165.021 93.3327C164.892 93.7735 164.854 94.2363 164.91 94.6924V107.884C164.91 107.884 164.844 109.643 166.192 109.643C167.806 109.846 169.439 109.846 171.053 109.643C171.053 109.643 172.133 109.438 172.133 107.815V94.826C172.215 94.3728 172.199 93.9071 172.083 93.4612C171.968 93.0152 171.758 92.5997 171.467 92.2433C171.122 91.7986 170.899 91.2714 170.82 90.7138L169.747 82.7854C169.735 82.6963 169.689 82.6152 169.619 82.5585C169.55 82.5018 169.461 82.4739 169.371 82.4804Z" fill="white"/>
<path d="M168.619 110.018C167.803 110.018 166.988 109.967 166.179 109.865C165.998 109.87 165.818 109.837 165.651 109.768C165.483 109.699 165.332 109.597 165.206 109.466C164.657 108.895 164.688 107.917 164.689 107.876L164.689 94.7059C164.632 94.2217 164.674 93.7309 164.812 93.2634C164.95 92.7959 165.182 92.3616 165.494 91.987C165.824 91.5758 166.037 91.0828 166.111 90.5602L167.144 82.796C167.164 82.6467 167.241 82.5111 167.359 82.4179C167.478 82.3248 167.627 82.2814 167.777 82.2969C168.302 82.3247 168.828 82.3119 169.35 82.2589L169.356 82.2583C169.502 82.2477 169.647 82.2932 169.76 82.3855C169.874 82.4778 169.948 82.61 169.968 82.7552L171.041 90.6839C171.115 91.2025 171.322 91.6929 171.643 92.1066C171.952 92.4848 172.175 92.9253 172.298 93.398C172.422 93.8708 172.441 94.3646 172.356 94.8458V107.815C172.356 109.602 171.108 109.859 171.096 109.862C170.274 109.965 169.447 110.018 168.619 110.018ZM167.723 82.7396C167.69 82.738 167.657 82.7488 167.632 82.7699C167.606 82.7909 167.589 82.8208 167.584 82.8535L166.551 90.6207C166.466 91.2249 166.219 91.7947 165.837 92.2696C165.562 92.5993 165.358 92.982 165.237 93.394C165.115 93.806 165.08 94.2386 165.132 94.665L165.133 94.6924V107.884C165.133 107.9 165.109 108.725 165.527 109.159C165.613 109.247 165.717 109.316 165.832 109.361C165.947 109.406 166.07 109.426 166.193 109.42L166.221 109.422C167.816 109.623 169.431 109.623 171.027 109.422C171.048 109.417 171.912 109.219 171.912 107.815L171.915 94.7861C171.992 94.3647 171.977 93.9315 171.87 93.5168C171.763 93.102 171.567 92.7156 171.296 92.3844C170.926 91.9079 170.686 91.3428 170.601 90.745L169.528 82.8153C169.523 82.7828 169.506 82.7532 169.481 82.7323C169.456 82.7114 169.424 82.7007 169.391 82.7023C168.843 82.7573 168.291 82.7701 167.741 82.7406C167.735 82.74 167.729 82.7396 167.723 82.7396Z" fill="#FFB6B6"/>
<path d="M167.742 94.9277H169.38C170.031 94.9277 170.655 95.1869 171.116 95.6483C171.576 96.1097 171.835 96.7355 171.835 97.3879V103.562C171.835 104.214 171.576 104.84 171.116 105.301C170.655 105.763 170.031 106.022 169.38 106.022H167.742C167.091 106.022 166.467 105.763 166.006 105.301C165.546 104.84 165.287 104.214 165.287 103.562V97.3879C165.287 96.7355 165.546 96.1097 166.006 95.6483C166.467 95.1869 167.091 94.9277 167.742 94.9277Z" fill="#512100"/>
<path d="M113.807 71.7841C113.269 71.8385 112.727 71.8511 112.187 71.822C112.095 71.8119 112.003 71.8384 111.93 71.8959C111.858 71.9534 111.81 72.0372 111.799 72.1292L110.765 79.895C110.686 80.4588 110.456 80.9904 110.099 81.4335C109.805 81.7861 109.586 82.1956 109.457 82.6364C109.327 83.0772 109.289 83.5401 109.346 83.9961V97.1878C109.346 97.1878 109.279 98.9466 110.628 98.9466C112.242 99.1499 113.875 99.1499 115.489 98.9466C115.489 98.9466 116.569 98.7418 116.569 97.1187V84.1297C116.651 83.6765 116.634 83.2108 116.519 82.7649C116.404 82.3189 116.193 81.9034 115.902 81.547C115.557 81.1023 115.334 80.5751 115.256 80.0175L114.182 72.0892C114.17 72 114.125 71.9189 114.055 71.8622C113.985 71.8056 113.897 71.7776 113.807 71.7841Z" fill="white"/>
<path d="M113.053 99.3213C112.237 99.3213 111.422 99.2705 110.612 99.1692C110.431 99.1735 110.252 99.1402 110.084 99.0716C109.917 99.0029 109.765 98.9003 109.639 98.7701C109.091 98.1989 109.121 97.2206 109.123 97.1792L109.123 84.0097C109.065 83.5254 109.107 83.0346 109.245 82.5671C109.384 82.0997 109.616 81.6654 109.927 81.2908C110.258 80.8796 110.471 80.3866 110.544 79.8639L111.577 72.0998C111.597 71.9504 111.675 71.8148 111.793 71.7216C111.911 71.6285 112.061 71.5851 112.21 71.6007C112.735 71.6284 113.261 71.6157 113.784 71.5626L113.79 71.5621C113.936 71.5515 114.08 71.5969 114.194 71.6892C114.307 71.7815 114.382 71.9137 114.402 72.0589L115.475 79.9876C115.549 80.5062 115.756 80.9966 116.077 81.4103C116.385 81.7885 116.609 82.229 116.732 82.7017C116.855 83.1745 116.875 83.6684 116.79 84.1495V97.1187C116.79 98.9055 115.542 99.163 115.529 99.1654C114.708 99.2692 113.881 99.3212 113.053 99.3213ZM112.156 72.0433C112.123 72.0417 112.091 72.0525 112.065 72.0736C112.04 72.0946 112.023 72.1245 112.018 72.1573L110.985 79.9244C110.9 80.5286 110.653 81.0984 110.271 81.5733C109.996 81.9031 109.792 82.2857 109.67 82.6977C109.549 83.1097 109.513 83.5423 109.565 83.9687L109.567 83.9961V97.1877C109.566 97.2041 109.543 98.029 109.961 98.4624C110.047 98.5505 110.151 98.6193 110.266 98.6644C110.381 98.7095 110.504 98.7298 110.627 98.724L110.654 98.7258C112.25 98.9264 113.864 98.9264 115.46 98.7258C115.481 98.7205 116.345 98.523 116.345 97.1187L116.349 84.0898C116.426 83.6684 116.41 83.2352 116.303 82.8205C116.196 82.4057 116 82.0193 115.729 81.6881C115.359 81.2116 115.12 80.6465 115.035 80.0487L113.961 72.119C113.957 72.0865 113.94 72.0569 113.915 72.036C113.889 72.0151 113.857 72.0044 113.824 72.006C113.276 72.061 112.725 72.0738 112.174 72.0443C112.168 72.0437 112.162 72.0433 112.156 72.0433Z" fill="#FFB6B6"/>
<path d="M112.176 84.2324H113.813C114.464 84.2324 115.089 84.4916 115.549 84.953C116.01 85.4144 116.268 86.0401 116.268 86.6926V92.8665C116.268 93.519 116.01 94.1448 115.549 94.6062C115.089 95.0675 114.464 95.3267 113.813 95.3267H112.176C111.525 95.3267 110.9 95.0675 110.44 94.6062C109.979 94.1448 109.721 93.519 109.721 92.8665V86.6926C109.721 86.0401 109.979 85.4144 110.44 84.953C110.9 84.4916 111.525 84.2324 112.176 84.2324Z" fill="#512100"/>
<path d="M104.389 60.4589C103.851 60.5133 103.309 60.5259 102.769 60.4968C102.677 60.4867 102.585 60.5132 102.512 60.5707C102.44 60.6282 102.392 60.712 102.381 60.804L101.347 68.5698C101.268 69.1336 101.038 69.6652 100.681 70.1083C100.387 70.4609 100.168 70.8704 100.039 71.3112C99.9091 71.752 99.8713 72.2149 99.9277 72.6709V85.8626C99.9277 85.8626 99.8611 87.6215 101.21 87.6215C102.824 87.8247 104.457 87.8247 106.071 87.6215C106.071 87.6215 107.151 87.4166 107.151 85.7935V72.8045C107.233 72.3513 107.216 71.8856 107.101 71.4397C106.986 70.9937 106.775 70.5782 106.484 70.2219C106.139 69.7771 105.917 69.2499 105.838 68.6923L104.765 60.764C104.752 60.6748 104.707 60.5937 104.637 60.537C104.567 60.4804 104.479 60.4524 104.389 60.4589Z" fill="white"/>
<path d="M103.635 87.9961C102.819 87.9961 102.004 87.9453 101.194 87.844C101.014 87.8483 100.834 87.815 100.666 87.7464C100.499 87.6777 100.347 87.5751 100.221 87.4449C99.6726 86.8737 99.7032 85.8954 99.7047 85.854L99.7046 72.6845C99.6473 72.2002 99.6891 71.7094 99.8275 71.2419C99.9659 70.7745 100.198 70.3402 100.509 69.9656C100.84 69.5544 101.053 69.0614 101.126 68.5387L102.159 60.7746C102.179 60.6252 102.257 60.4896 102.375 60.3964C102.493 60.3033 102.643 60.2599 102.793 60.2755C103.317 60.3032 103.843 60.2905 104.366 60.2374L104.372 60.2369C104.518 60.2263 104.662 60.2717 104.776 60.364C104.89 60.4563 104.964 60.5885 104.984 60.7337L106.057 68.6624C106.131 69.181 106.338 69.6714 106.659 70.0851C106.967 70.4633 107.191 70.9038 107.314 71.3766C107.437 71.8493 107.457 72.3432 107.372 72.8243V85.7935C107.372 87.5803 106.124 87.8378 106.111 87.8402C105.29 87.944 104.463 87.996 103.635 87.9961ZM102.738 60.7181C102.705 60.7165 102.673 60.7273 102.647 60.7484C102.622 60.7694 102.605 60.7993 102.6 60.8321L101.567 68.5992C101.482 69.2034 101.235 69.7732 100.853 70.2481C100.578 70.5779 100.374 70.9605 100.252 71.3725C100.131 71.7845 100.095 72.2171 100.147 72.6435L100.149 72.6709V85.8625C100.148 85.8789 100.125 86.7038 100.543 87.1372C100.629 87.2253 100.733 87.2941 100.848 87.3392C100.963 87.3843 101.086 87.4046 101.209 87.3988L101.236 87.4006C102.832 87.6012 104.447 87.6012 106.042 87.4006C106.063 87.3953 106.928 87.1978 106.928 85.7935L106.931 72.7646C107.008 72.3432 106.992 71.91 106.885 71.4953C106.778 71.0805 106.582 70.6941 106.311 70.3629C105.941 69.8864 105.702 69.3213 105.617 68.7235L104.543 60.7938C104.539 60.7613 104.522 60.7317 104.497 60.7108C104.471 60.6899 104.439 60.6792 104.406 60.6809C103.858 60.7358 103.307 60.7486 102.756 60.7191C102.75 60.7185 102.744 60.7181 102.738 60.7181Z" fill="#FFB6B6"/>
<path d="M102.758 72.9062H104.395C105.046 72.9062 105.671 73.1655 106.131 73.6268C106.592 74.0882 106.85 74.714 106.85 75.3665V81.5404C106.85 82.1929 106.592 82.8186 106.131 83.28C105.671 83.7414 105.046 84.0006 104.395 84.0006H102.758C102.107 84.0006 101.482 83.7414 101.022 83.28C100.561 82.8186 100.303 82.1929 100.303 81.5404V75.3665C100.303 74.714 100.561 74.0882 101.022 73.6268C101.482 73.1654 102.107 72.9063 102.758 72.9062Z" fill="#512100"/>
<path d="M17.6393 22.3361C21.9738 22.3361 25.4876 18.8149 25.4876 14.4713C25.4876 10.1276 21.9738 6.60645 17.6393 6.60645C13.3048 6.60645 9.79102 10.1276 9.79102 14.4713C9.79102 18.8149 13.3048 22.3361 17.6393 22.3361Z" fill="#F0F0F0"/>
<path d="M198.464 15.7296C202.798 15.7296 206.312 12.2084 206.312 7.86482C206.312 3.5212 202.798 0 198.464 0C194.129 0 190.615 3.5212 190.615 7.86482C190.615 12.2084 194.129 15.7296 198.464 15.7296Z" fill="#F0F0F0"/>
<path d="M108.68 35.549C111.801 35.549 114.331 33.0137 114.331 29.8863C114.331 26.7589 111.801 24.2236 108.68 24.2236C105.559 24.2236 103.029 26.7589 103.029 29.8863C103.029 33.0137 105.559 35.549 108.68 35.549Z" fill="#F0F0F0"/>
</g>
<defs>
<clipPath id="clip0_249_478">
<rect width="230" height="201" fill="white"/>
</clipPath>
</defs>
</svg>
